<svg width="47" height="70" viewBox="0 0 47 70" fill="none" xmlns="http://www.w3.org/2000/svg">
<g clip-path="url(#clip0_4768_9344)">
<g clip-path="url(#clip1_4768_9344)">
<path d="M42.2472 76.8138C42.0953 77.1035 41.8768 77.2911 41.5302 77.2768C38.1825 77.7422 34.868 78.4188 31.518 78.8676C31.1072 78.9222 30.6252 79.1453 30.3451 78.6491C30.0412 78.1054 30.4116 77.773 30.8128 77.481C31.1856 77.1652 31.2829 76.7379 31.2995 76.2796C31.3043 76.1514 31.3043 76.0256 31.2948 75.8997C31.2829 75.6504 31.252 75.4035 31.1879 75.159C31.0574 74.563 30.9101 73.9671 30.865 73.3569C30.8698 72.7657 30.7629 72.184 30.7012 71.5952C30.5136 69.8122 30.44 68.041 31.6675 66.5238C32.7692 65.161 32.9116 63.5987 32.641 61.9391C32.4961 61.0464 32.2706 60.1632 32.2967 59.2491C32.3133 58.6081 32.5033 58.0454 33.2322 57.948C33.9753 57.8483 34.2768 58.3801 34.4478 58.9856C34.6947 59.8593 34.7968 60.7615 34.9274 61.6566C35.1791 63.3708 35.4545 65.0826 35.7845 66.7826C35.889 67.3192 36.0219 67.9579 36.7152 67.9864C37.4916 68.0172 37.4868 67.2978 37.5747 66.7921C37.7646 65.7071 37.824 64.6031 37.9664 63.5109C38.2371 61.4049 38.3036 59.2705 38.7333 57.0031C41.0482 60.7045 41.4946 64.5223 40.7704 68.5396C40.4689 70.2087 40.1721 71.8754 40.495 73.5753C40.5449 73.6988 40.6208 73.7985 40.7253 73.8793C41.0506 74.0241 41.3426 73.979 41.5967 73.7226C41.6252 73.6656 41.6536 73.611 41.6821 73.5564C41.5705 72.374 41.6062 71.2058 41.8436 70.0282C42.0763 68.872 42.252 67.6991 42.3517 66.5238C42.6983 62.3451 41.5231 58.5819 39.1369 55.1678C38.7974 54.6834 38.5552 54.2109 38.6312 53.5438C39.3886 46.8484 40.0961 40.1506 40.8464 33.4552C40.8915 33.0468 40.7775 32.7786 40.5496 32.496C37.6008 28.8492 34.6543 25.2023 31.7079 21.5531C31.4491 21.2302 31.1476 21.0616 30.7083 21.0379C29.685 20.9809 28.6665 20.8693 27.6479 20.7601C23.1867 20.2829 18.7231 19.7985 14.231 19.3142C14.8436 17.7638 14.789 16.2395 14.5468 14.7057C14.3379 13.3833 14.1289 12.0608 13.92 10.7384C13.8773 10.4724 13.7182 10.1258 14.0245 9.98335C15.2377 9.42065 14.9552 8.39497 14.8626 7.42628C14.8365 7.15324 14.7177 6.85883 14.9647 6.6499C15.6152 6.09907 15.4443 5.37017 15.4324 4.67214C15.2116 3.36393 14.9979 2.05572 14.7676 0.749878C14.7201 0.486335 14.6679 0.17056 14.326 0.134946C13.977 0.0969579 13.7182 0.234665 13.7206 0.647785C13.3312 1.75894 13.8345 2.81073 13.9698 3.88152C14.1812 5.54824 14.0981 5.75243 12.4788 5.99698C9.3638 6.46233 6.26302 7.00603 3.15038 7.49038C0.54582 7.89401 0.842602 7.93437 0.363003 5.43428C0.189683 4.53206 0.351132 3.51588 -0.4205 2.78461C-0.821749 2.40236 -1.3061 2.46171 -1.25386 2.9793C-1.07342 4.80985 -1.21825 6.87783 -0.187824 8.33799C0.503084 9.31618 0.67403 10.3466 1.1655 11.3106C2.04872 11.6192 2.23154 12.36 2.29565 13.1648C2.3645 14.0291 2.37874 14.8862 2.22679 15.7528C1.7187 18.6233 1.30083 21.4819 1.83267 24.4236C2.29327 26.9664 3.40205 29.1792 4.78624 31.3018C5.08064 31.7529 5.39879 32.1707 5.32282 32.8047C4.97143 35.7369 4.67227 38.6762 4.35887 41.6108C3.59436 48.8166 2.82748 56.0225 2.07959 63.2307C1.92526 64.7241 2.38824 65.3011 3.81754 65.4578C6.24403 65.7261 8.67764 65.954 11.1041 66.2128C16.978 66.8396 22.8519 67.4759 28.7282 68.0956C29.1437 68.1383 29.4167 68.2095 29.3194 68.7129C29.0226 70.2609 29.4856 71.7638 29.6091 73.2857L29.6637 74.0431C29.6874 74.4491 29.8085 74.8408 29.8204 75.2373C29.7515 75.6457 29.8892 76.0564 29.8014 76.4672C29.7515 76.7355 29.526 76.8186 29.3218 76.923C29.2434 76.9777 29.1746 77.0441 29.1223 77.1225C28.9799 77.1866 28.6902 77.735 28.9371 78.3428C29.3075 79.2498 29.0392 79.9906 28.3887 80.6482C28.6261 82.3648 28.8469 84.0814 29.1081 85.7933C29.2149 86.4913 29.6399 86.4058 30.0934 86.0877C30.5089 84.8578 30.0008 83.6825 29.8536 82.493C29.6589 80.9189 29.685 80.8144 31.2188 80.558C34.633 79.9906 38.0543 79.4777 41.4637 78.8937C43.1114 78.6111 43.1399 78.6824 43.4652 80.2945C43.6955 81.4365 43.5958 82.6592 44.2653 83.6992C44.4885 83.7965 44.6405 84.1099 44.9705 83.8416C45.272 83.5947 45.272 83.3003 45.1842 83.0011C44.9372 82.163 44.9325 81.2798 44.7331 80.4488C44.4766 79.3804 44.7639 78.001 43.3204 77.4573C42.9524 77.3172 43.1114 76.9159 43.0687 76.6239L42.8431 75.6694L42.0312 75.7169L42.2425 76.8115" fill="#3D5267"/>
<path d="M13.7119 0.642999C13.9731 2.1459 14.2366 3.65118 14.493 5.15408C14.5928 5.7429 14.3102 6.01356 13.738 6.10378C9.59495 6.76382 5.44951 7.41912 1.31118 8.11715C0.470698 8.2596 0.380476 7.72777 0.285506 7.18407C0.0290866 5.71678 -0.194093 4.24474 -0.431519 2.77508C2.05195 2.76796 4.44045 2.06755 6.88356 1.75415C9.16996 1.46212 11.435 1.01813 13.7095 0.640625L13.7119 0.642999Z" fill="#E4ECF4"/>
<path d="M31.4529 63.3801C31.6832 64.9518 30.3869 65.8422 29.7814 67.0364C29.5844 67.4258 29.0478 67.1765 28.6845 67.1409C23.9811 66.6565 19.2801 66.1484 14.5815 65.6451C11.2124 65.2842 7.84572 64.9067 4.47428 64.5624C2.94764 64.4057 2.90253 64.4295 3.06635 62.8506C3.80237 55.7991 4.5645 48.7475 5.31714 41.696C5.90596 36.1782 6.49477 30.6581 7.09308 25.1427C7.15719 24.5587 7.28302 23.9841 7.42548 23.1365C7.72463 24.9029 7.95256 26.4106 8.24222 27.9064C8.53188 29.4116 9.59792 30.1975 11.0082 30.0171C12.3141 29.8509 13.1617 28.7801 13.0287 27.3104C12.9147 26.0568 12.7248 24.8056 12.4874 23.571C12.2523 22.3482 12.8578 21.4555 13.4822 20.5367C13.7457 20.1449 14.1114 20.2636 14.4414 20.2969C19.6125 20.8406 24.7836 21.4104 29.9571 21.9351C30.7858 22.0182 30.5222 22.5453 30.4795 22.9537C30.2325 25.3825 29.9714 27.8114 29.6888 30.2355C29.4989 31.869 29.9619 32.453 31.6286 32.6216C33.9791 32.8614 36.3273 33.1368 38.6825 33.3529C39.5277 33.4312 39.8744 33.6829 39.7628 34.6421C39.136 40.0435 38.5899 45.4521 37.9987 50.8559C37.55 54.961 37.0799 59.0637 36.5077 63.1877C36.256 61.6943 36.0305 60.1962 35.7408 58.7099C35.463 57.283 34.3448 56.3808 33.1125 56.5066C31.7663 56.6467 30.9211 57.6914 30.9116 59.2394C30.9116 59.4697 31.0398 59.7023 30.8665 59.9374C30.2302 59.7736 30.0497 59.3011 30.0117 58.717C29.9951 58.4559 29.8479 58.2612 29.5891 58.2232C29.3137 58.1828 29.1499 58.3633 29.0763 58.6078C28.8507 59.3605 28.3735 59.7546 27.5758 59.5765C26.8065 59.4056 26.6593 58.8096 26.6925 58.1187C26.7068 57.8338 26.6712 57.5275 26.334 57.4611C25.9209 57.3803 25.8521 57.7009 25.7215 58.0143C25.2585 59.1302 24.2898 59.5836 23.4137 59.142C22.4782 58.6695 22.2859 57.6035 22.984 56.5565C23.1976 56.2336 23.4232 55.8964 23.0386 55.6424C22.6539 55.3883 22.4046 55.7658 22.1767 56.0365C21.3956 56.972 21.3647 58.2232 22.1031 59.199C22.8463 60.1819 24.1521 60.55 25.2609 59.9326C25.8022 59.6311 26.0942 59.5931 26.5216 60.0561C27.0178 60.5951 27.8417 60.8301 28.3664 60.4764C29.5179 59.6976 30.1162 60.8491 30.9733 61.0201C31.4268 61.1103 31.187 61.6184 31.263 61.9389C31.3579 63.0168 30.5459 62.6725 30.064 62.6274C27.761 62.4066 25.4627 62.1383 23.162 61.8985C22.889 61.87 22.6207 61.8249 22.0699 61.9413C23.6582 62.3568 25.0424 62.3449 26.3934 62.5467C27.7111 62.7438 29.0502 62.7675 30.3679 62.9883C30.7549 63.0524 31.1538 63.0714 31.4553 63.3753L31.4529 63.3801Z" fill="#FEFEFE"/>
<path d="M5.54776 30.5656C3.59849 28.0062 2.75801 25.328 2.54433 22.4124C2.38762 20.2685 2.75801 18.1791 3.13314 16.0898C3.33733 14.9501 3.40855 13.8081 3.15451 12.6875C2.98831 11.9515 3.19012 11.8019 3.90477 11.695C6.58055 11.3033 9.24209 10.8213 11.906 10.3607C12.6183 10.2373 12.9531 10.4035 13.0338 11.2249C13.1929 12.8276 13.5347 14.4088 13.7247 16.0091C13.8671 17.1986 13.8458 18.4735 13.0361 19.4019C11.2317 21.4722 11.3647 23.7705 11.9369 26.1827C12.0176 26.527 12.039 26.8831 12.0864 27.2345C12.2147 28.1961 11.8775 28.8989 10.8732 29.0508C9.88789 29.2004 9.31807 28.6899 9.15899 27.7023C8.78861 25.4111 8.40398 23.1223 8.02647 20.8335C7.94338 20.3302 7.86028 19.8245 7.7843 19.3188C7.73682 18.9959 7.68221 18.6564 7.28333 18.6255C6.73963 18.5851 6.79186 19.0505 6.75388 19.371C6.53544 21.2467 6.33838 23.1271 6.13657 25.0051C5.949 26.7597 5.76381 28.5166 5.54538 30.5609L5.54776 30.5656Z" fill="#FEFEFE"/>
<path d="M38.3261 32.3936C36.0586 32.149 33.7936 31.8926 31.5238 31.6694C30.9326 31.6101 30.5053 31.4415 30.5789 30.7601C30.8567 28.1935 31.1511 25.6269 31.4645 22.8301C34.0809 26.0519 36.5525 29.0957 39.0241 32.1395C38.9837 32.7473 38.592 32.4031 38.3261 32.3959V32.3936Z" fill="#E4ECF4"/>
<path d="M2.82622 10.805C1.66284 11.0186 1.83378 10.1687 1.68896 9.62259C1.51089 8.95305 2.00473 8.98391 2.44872 8.91506C6.00772 8.36186 9.56198 7.79679 13.1186 7.22459C13.5151 7.16049 13.9448 6.98954 13.9306 7.64721C13.9211 8.17904 14.3793 8.96729 13.4866 9.11924C9.89912 9.72705 6.29738 10.2613 2.8286 10.805H2.82622Z" fill="#FDFDFE"/>
<path d="M31.4516 63.3803C28.2986 63.0598 25.1456 62.7393 21.9925 62.4164C21.7053 62.3879 21.3966 62.3048 21.4014 61.97C21.4085 61.4738 21.8264 61.4501 22.1801 61.4857C24.089 61.6685 25.9955 61.8655 27.9021 62.0721C28.7972 62.1695 29.6875 62.2977 30.5778 62.4092C30.9411 62.4544 31.1904 62.3309 31.264 61.9463C31.5394 62.3974 31.4824 62.8912 31.4539 63.3803H31.4516Z" fill="#E4ECF4"/>
<path d="M38.326 32.3931C38.5492 32.2839 38.8887 32.4857 39.024 32.1367C39.1688 32.2246 39.2876 32.4026 39.157 32.4952C38.8816 32.6923 38.5777 32.6282 38.326 32.3908V32.3931Z" fill="#3D5267"/>
<path d="M33.0039 47.5469C25.8004 46.7682 18.5969 45.9918 11.3934 45.2012C11.0135 45.1584 10.3511 45.327 10.4152 44.6717C10.4864 43.9594 11.1299 44.2372 11.5572 44.2823C18.7631 45.0445 25.9666 45.8185 33.1724 46.5901C33.2912 46.602 33.4146 46.5901 33.5238 46.6234C33.8942 46.7421 34.54 46.5854 34.4498 47.2407C34.3738 47.7867 33.8562 47.6039 33.4763 47.5636C33.3196 47.5469 33.1629 47.5398 33.0039 47.5303C33.0039 47.5374 33.0039 47.5422 33.0039 47.5493V47.5469Z" fill="#3D5267"/>
<path d="M33.1432 52.2065C29.2636 51.7981 25.3841 51.3898 21.507 50.979C18.0975 50.6158 14.6905 50.2454 11.281 49.8797C11.046 49.8536 10.8062 49.8536 10.5759 49.8109C10.2269 49.7444 9.81138 49.6945 9.92297 49.1817C10.0156 48.7567 10.3693 48.8398 10.6875 48.8731C13.3538 49.1485 16.0201 49.4049 18.684 49.6922C23.5037 50.2098 28.3211 50.7416 33.1384 51.2663C33.5231 51.309 34.0288 51.2687 33.9813 51.8314C33.9409 52.2991 33.5041 52.2587 33.1432 52.2065Z" fill="#3D5267"/>
<path d="M11.8774 39.6643C16.7731 40.1866 21.6688 40.7066 26.5669 41.2313C29.0337 41.4949 31.503 41.7608 33.9698 42.0386C34.3663 42.0837 35.0121 41.9555 34.9575 42.5751C34.8934 43.2874 34.2262 43.0073 33.8107 42.9645C29.2261 42.4897 24.6414 41.9911 20.0591 41.4996C17.3952 41.2147 14.7312 40.9298 12.0673 40.6449C11.989 40.6354 11.9083 40.6378 11.8323 40.6259C11.4239 40.5594 10.8351 40.6378 10.9087 40.0062C10.9775 39.4221 11.5284 39.7308 11.8798 39.6619L11.8774 39.6643Z" fill="#3D5267"/>
<path d="M33.9564 38.3222C28.7212 37.7595 23.486 37.1944 18.2508 36.6341C17.8614 36.5914 17.3319 36.6341 17.3604 36.1118C17.3937 35.4684 17.9896 35.6512 18.379 35.6915C23.1085 36.1878 27.8356 36.703 32.5628 37.2111C33.2655 37.287 33.9707 37.3464 34.6711 37.4366C35.0059 37.4793 35.4878 37.4627 35.457 37.9471C35.4214 38.5169 34.9346 38.4029 34.5453 38.3673C34.3506 38.3483 34.1559 38.3246 33.9588 38.3008V38.3222H33.9564Z" fill="#3D5267"/>
<path d="M7.55334 57.1451C7.60558 56.2714 7.96409 55.5591 8.76184 55.1412C9.61182 54.6949 10.4832 54.7614 11.148 55.438C11.6561 55.958 12.0502 56.2381 12.7743 55.844C13.064 55.6849 13.6362 55.5876 13.7691 56.1099C13.9092 56.6631 13.4225 56.6892 13.0236 56.751C12.3992 56.8459 12.1095 57.2757 11.9528 57.8526C11.8745 58.1328 11.6679 58.3346 11.3284 58.2325C11.0506 58.1494 11.015 57.9286 11.0459 57.6698C11.0696 57.4775 11.0886 57.2757 11.0554 57.0857C10.939 56.3996 10.5734 55.8891 9.84925 55.8416C9.19158 55.7989 8.70961 56.1693 8.55291 56.8175C8.37721 57.544 8.75472 58.026 9.39814 58.3109C9.73528 58.4604 10.2766 58.4533 9.99883 59.0374C9.74953 59.5645 9.31504 59.2606 8.97315 59.1324C8.06856 58.7952 7.64357 58.0924 7.55334 57.1427V57.1451Z" fill="#3D5267"/>
<path d="M17.4899 61.9528C14.4699 61.6299 11.5116 61.3094 8.55325 60.9983C8.17812 60.958 7.91221 60.7656 7.96206 60.4119C8.01905 60.0106 8.41555 60.0296 8.72657 60.0581C10.6758 60.2409 12.6251 60.4261 14.572 60.6303C15.5454 60.7324 16.5118 60.882 17.4828 60.9912C17.9767 61.0458 18.7459 60.9271 18.7032 61.5681C18.6557 62.2733 17.8698 61.8174 17.4876 61.9528H17.4899Z" fill="#E4ECF4"/>
<path d="M16.0261 56.0302C16.3276 55.9946 16.6648 56.0564 16.7241 56.4267C16.7882 56.8114 16.4962 56.9633 16.1401 56.9847C15.4112 57.0274 15.0242 57.4382 14.8627 58.1291C14.7939 58.4187 14.5683 58.6134 14.2525 58.5137C13.9344 58.414 13.9154 58.141 13.9534 57.8418C14.0626 56.9467 15.0622 56.0445 16.0285 56.0302H16.0261Z" fill="#3D5267"/>
<path d="M16.9484 59.3426C16.6041 59.3782 16.2907 59.3236 16.2456 58.9153C16.21 58.59 16.4047 58.4167 16.7418 58.4024C17.4636 58.3716 17.891 57.9964 18.0833 57.3008C18.1522 57.0491 18.2851 56.7286 18.6484 56.8449C19.0282 56.966 19.0116 57.2841 18.9523 57.626C18.7979 58.5069 17.8577 59.326 16.9484 59.345V59.3426Z" fill="#3D5267"/>
<path d="M40.8783 70.0243C41.2748 67.9302 41.619 65.8314 41.3935 63.6827C41.1014 60.9119 40.2372 58.3715 38.4138 55.9688C38.0054 59.7343 37.6279 63.2862 37.2195 66.8333C37.1768 67.2085 37.3715 67.8376 36.7257 67.8638C36.087 67.8875 36.2152 67.2726 36.1487 66.8832C35.7024 64.2834 35.2893 61.6765 34.8358 59.079C34.6292 57.899 33.9336 57.3031 33.067 57.4764C32.1885 57.6521 31.7801 58.4047 31.9226 59.599C31.9653 59.9504 31.9914 60.3089 32.0793 60.6508C32.6705 62.9324 32.6087 65.0574 30.9824 66.9948C30.1704 67.9635 30.092 69.2384 30.2202 70.4849C30.3247 71.5035 30.4624 72.5173 30.5859 73.5335C30.6927 74.1009 30.7093 74.6897 30.9895 75.2168C31.253 75.4305 31.113 75.6703 31.037 75.9054C31.0251 75.9908 31.0132 76.0739 30.999 76.1594C31.0892 76.2401 31.1889 76.309 31.2981 76.3636C31.5973 76.4562 31.8988 76.4562 32.2027 76.4063C32.3998 76.347 32.6064 76.2947 32.6586 76.0858C32.7607 76.0692 32.858 76.0336 32.9459 75.9718C32.9506 75.9647 32.9554 75.9576 32.9601 75.9505C33.4326 76.2686 33.8813 76.4229 34.2327 75.8412C34.2398 75.8412 34.247 75.8412 34.2541 75.8436C34.3657 75.8246 34.4678 75.7843 34.5604 75.7202C34.5699 75.7107 34.5794 75.7012 34.5889 75.6893C34.6126 75.7202 34.6363 75.751 34.6601 75.7819C34.9426 75.9362 35.2204 75.9338 35.4934 75.7534C35.5457 75.6869 35.5599 75.6204 35.5457 75.554C35.7427 75.6418 35.9398 75.6418 36.1392 75.5397C36.1796 75.516 36.2152 75.4875 36.2437 75.4566C36.2651 75.4851 36.2865 75.5112 36.3078 75.5397C36.645 75.7083 36.9299 75.5801 37.2029 75.383C37.286 75.3165 37.3644 75.2453 37.4356 75.167C37.9247 74.9818 38.1597 75.0269 38.5206 75.167C38.7984 75.2121 39.0667 75.2168 39.2614 74.9818C39.2875 75.0174 39.3136 75.053 39.3397 75.091C39.4537 75.1337 39.5724 75.1551 39.6935 75.1503C40.4438 75.0055 41.2035 74.8726 40.7667 73.7899C40.6028 72.5292 40.6432 71.2803 40.8806 70.0267L40.8783 70.0243Z" fill="#FEFEFE"/>
</g>
</g>
<defs>
<clipPath id="clip0_4768_9344">
<rect width="47" height="69.7419" fill="white"/>
</clipPath>
<clipPath id="clip1_4768_9344">
<rect width="46.5336" height="86.4194" fill="white" transform="translate(-1.25775 0.128906)"/>
</clipPath>
</defs>
</svg>
