<svg width="80" height="80" viewBox="0 0 80 80" fill="none" xmlns="http://www.w3.org/2000/svg">
<path d="M0 39.9C-1.10419e-07 45.1397 1.03204 50.3282 3.03721 55.1691C5.04237 60.01 7.98138 64.4085 11.6864 68.1136C15.3915 71.8186 19.79 74.7576 24.6309 76.7628C29.4718 78.768 34.6603 79.8 39.9 79.8C45.1397 79.8 50.3282 78.768 55.1691 76.7628C60.01 74.7576 64.4085 71.8186 68.1136 68.1136C71.8186 64.4085 74.7576 60.01 76.7628 55.1691C78.768 50.3282 79.8 45.1397 79.8 39.9C79.8 34.6603 78.768 29.4718 76.7628 24.6309C74.7576 19.79 71.8186 15.3915 68.1136 11.6864C64.4085 7.98138 60.01 5.04237 55.1691 3.03721C50.3282 1.03204 45.1397 0 39.9 0C34.6603 0 29.4718 1.03204 24.6309 3.03721C19.79 5.04237 15.3915 7.98138 11.6864 11.6864C7.98138 15.3915 5.04237 19.79 3.03721 24.6309C1.03204 29.4718 -7.80782e-08 34.6603 0 39.9Z" fill="#EFEFEF"/>
<path d="M27.7568 73.0271C27.7568 73.2437 28.0697 73.4583 28.6776 73.6584C29.2856 73.8586 30.1766 74.0405 31.2999 74.1937C32.4232 74.3469 33.7567 74.4684 35.2243 74.5513C36.692 74.6343 38.265 74.6769 39.8535 74.6769C41.4421 74.6769 43.0151 74.6343 44.4827 74.5513C45.9504 74.4684 47.2839 74.3469 48.4072 74.1937C49.5304 74.0405 50.4215 73.8586 51.0294 73.6584C51.6373 73.4583 51.9502 73.2437 51.9502 73.0271C51.9502 72.8104 51.6373 72.5959 51.0294 72.3957C50.4215 72.1955 49.5304 72.0136 48.4072 71.8604C47.2839 71.7072 45.9504 71.5857 44.4827 71.5028C43.0151 71.4199 41.4421 71.3772 39.8535 71.3772C38.265 71.3772 36.692 71.4199 35.2243 71.5028C33.7567 71.5857 32.4232 71.7072 31.2999 71.8604C30.1766 72.0136 29.2856 72.1955 28.6776 72.3957C28.0697 72.5959 27.7568 72.8104 27.7568 73.0271Z" fill="#BCD0E3"/>
<path d="M20.4744 33.0002V25.5002C20.4744 22.5002 22.8077 21.2502 23.9744 21.0002C25.4744 20.8336 29.2744 20.5002 32.4744 20.5002C35.6744 20.5002 37.141 23.1669 37.4744 24.5002C37.641 25.8336 37.8744 29.4002 37.4744 33.0002C37.0744 36.6002 33.9744 37.5002 32.4744 37.5002C30.8077 37.6669 26.8744 37.9002 24.4744 37.5002C22.0744 37.1002 20.8077 34.3336 20.4744 33.0002Z" fill="#939DE9"/>
<path d="M42.4487 55.0005V47.5005C42.4487 44.5005 44.7821 43.2505 45.9487 43.0005C47.4487 42.8338 51.2487 42.5005 54.4487 42.5005C57.6487 42.5005 59.1154 45.1672 59.4487 46.5005C59.6154 47.8338 59.8487 51.4005 59.4487 55.0005C59.0487 58.6005 55.9487 59.5005 54.4487 59.5005C52.7821 59.6672 48.8487 59.9005 46.4487 59.5005C44.0487 59.1005 42.7821 56.3338 42.4487 55.0005Z" fill="#939DE9"/>
<path d="M20.4744 55.0005V47.5005C20.4744 44.5005 22.8077 43.2505 23.9744 43.0005C25.4744 42.8338 29.2744 42.5005 32.4744 42.5005C35.6744 42.5005 37.141 45.1672 37.4744 46.5005C37.641 47.8338 37.8744 51.4005 37.4744 55.0005C37.0744 58.6005 33.9744 59.5005 32.4744 59.5005C30.8077 59.6672 26.8744 59.9005 24.4744 59.5005C22.0744 59.1005 20.8077 56.3338 20.4744 55.0005Z" fill="white"/>
<path d="M20.518 29.1748C20.5169 29.4864 20.5129 29.7934 20.5089 30.0975C20.499 30.8503 20.4893 31.585 20.5263 32.3272C20.6745 35.2955 22.9359 37.4681 25.9178 37.5072H25.9179C27.9746 37.5346 30.0304 37.5371 32.0857 37.5059L32.0859 37.5059C35.1063 37.4611 37.4131 35.1989 37.4877 32.1884C37.5388 30.0772 37.5338 27.9611 37.4877 25.8463M20.518 29.1748L32.3197 20.555L32.3373 20.0553L32.3198 20.555C35.2457 20.6581 37.4233 22.9046 37.4877 25.8463M20.518 29.1748L20.8411 28.5287H20.5283L20.518 29.1748ZM37.4877 25.8463L37.9876 25.8354L37.4877 25.8463C37.4877 25.8463 37.4877 25.8463 37.4877 25.8463Z" stroke="#0E19B7"/>
<path d="M42.4923 51.175C42.4913 51.4867 42.4873 51.7937 42.4833 52.0978C42.4734 52.8505 42.4637 53.5852 42.5007 54.3275C42.6489 57.2957 44.9102 59.4683 47.8921 59.5074H47.8923C49.9489 59.5349 52.0048 59.5373 54.0601 59.5062L54.0602 59.5062C57.0807 59.4613 59.3875 57.1992 59.4621 54.1887C59.5131 52.0774 59.5082 49.9614 59.462 47.8465M42.4923 51.175L54.294 42.5553L54.3116 42.0556L54.2942 42.5553C57.2201 42.6584 59.3976 44.9048 59.462 47.8465M42.4923 51.175L42.8155 50.529H42.5027L42.4923 51.175ZM59.462 47.8465L59.9619 47.8356L59.462 47.8466C59.462 47.8465 59.462 47.8465 59.462 47.8465Z" stroke="#0E19B7"/>
<path d="M20.518 51.175C20.5169 51.4867 20.5129 51.7937 20.5089 52.0978C20.499 52.8505 20.4893 53.5852 20.5263 54.3275C20.6745 57.2957 22.9359 59.4683 25.9178 59.5074H25.9179C27.9746 59.5349 30.0304 59.5373 32.0857 59.5062L32.0859 59.5062C35.1063 59.4613 37.4131 57.1992 37.4877 54.1887C37.5388 52.0774 37.5338 49.9614 37.4877 47.8465M20.518 51.175L32.3197 42.5553L32.3373 42.0556L32.3198 42.5553C35.2457 42.6584 37.4233 44.9048 37.4877 47.8465M20.518 51.175L20.8411 50.529H20.5283L20.518 51.175ZM37.4877 47.8465L37.9876 47.8356L37.4877 47.8466C37.4877 47.8465 37.4877 47.8465 37.4877 47.8465Z" stroke="#0E19B7"/>
<path d="M52.0812 30.1155L52.3578 29.9773L52.3628 29.9748L52.4683 29.9221H52.5862H53.1493C53.5301 29.9221 53.9091 29.9237 54.287 29.9253C55.1722 29.9289 56.0512 29.9325 56.9334 29.916L56.9337 29.916C57.3004 29.9093 57.5781 29.7829 57.7633 29.6015C57.9481 29.4205 58.0676 29.1587 58.0731 28.8293C58.0782 28.5006 57.9727 28.2454 57.8039 28.0655C57.6339 27.8843 57.3682 27.7467 56.9973 27.7144C56.7082 27.6894 56.4263 27.6934 56.1176 27.6977C55.9932 27.6995 55.8645 27.7013 55.7292 27.7013H52.5837H52.0837V27.2013V26.6539C52.0833 26.2527 52.0843 25.8534 52.0853 25.4551C52.0874 24.5905 52.0895 23.7309 52.0775 22.8678L52.0775 22.8678C52.0722 22.4787 51.9857 22.2321 51.8726 22.0773C51.7652 21.9304 51.5988 21.8176 51.3266 21.7606L52.0812 30.1155ZM52.0812 30.1155V30.4246V30.975C52.0812 31.337 52.082 31.6981 52.0827 32.0585C52.0845 32.9306 52.0863 33.799 52.0775 34.6683M52.0812 30.1155L52.5812 30.4246V30.975C52.5812 31.3348 52.582 31.6945 52.5827 32.0542C52.5845 32.9277 52.5863 33.801 52.5775 34.6737M52.5775 34.6737L52.0775 34.6683M52.5775 34.6737C52.5662 35.7231 51.8993 36.4286 50.9622 36.4148C50.0251 36.4011 49.3757 35.6818 49.372 34.6424L52.5775 34.6737ZM52.0775 34.6683C52.073 35.0885 51.9387 35.4011 51.7514 35.6019C51.5673 35.7993 51.3042 35.9198 50.9695 35.9149C50.6339 35.9099 50.3716 35.7822 50.1889 35.579C50.0032 35.3723 49.8735 35.057 49.872 34.6409L52.0775 34.6683ZM49.872 34.6408C49.8695 33.8304 49.8703 33.0203 49.8711 32.2092C49.8715 31.8031 49.872 31.3968 49.872 30.99V30.4246V29.9246H49.372H48.7864C48.4092 29.9246 48.0335 29.9258 47.6587 29.9269C46.8009 29.9296 45.9479 29.9322 45.0925 29.9209L49.872 34.6408ZM45.0924 29.9209C44.6074 29.9141 44.267 29.7173 44.0763 29.4557C43.8859 29.1943 43.8063 28.8153 43.9483 28.3648L43.9484 28.3644C44.0543 28.0274 44.26 27.8385 44.5898 27.7677L44.4849 27.2788L44.5898 27.7677C44.7985 27.7229 45.029 27.7074 45.2767 27.7063L45.2772 27.7063C46.2781 27.7007 47.2793 27.7013 48.3122 27.702C48.6614 27.7023 49.0143 27.7025 49.372 27.7025H49.872V27.2025V26.6809C49.872 26.3014 49.8707 25.9234 49.8695 25.5463C49.8666 24.6599 49.8638 23.7788 49.8769 22.8959L49.8769 22.8954C49.8832 22.4419 50.0553 22.1289 50.2885 21.9462C50.5233 21.7622 50.8762 21.6665 51.3264 21.7605L45.0924 29.9209Z" fill="white" stroke="#0E19B7"/>
<path d="M20.9744 30.0002V26.0002L23.9744 26.5002L24.4744 30.0002H20.9744Z" fill="#939DE9"/>
<path d="M42.9487 52.0005V48.0005L45.9487 48.5005L46.4487 52.0005H42.9487Z" fill="#939DE9"/>
<path d="M20.9744 52.0005V48.0005L23.9744 48.5005L24.4744 52.0005H20.9744Z" fill="white"/>
<path opacity="0.2" d="M57.9744 54.0003C57.9744 56.5002 55.8077 57.6669 54.4744 58.0002L49.4744 58.5003L47.9744 58.5002C48.3077 58.5002 53.4744 59.0002 54.9744 58.5002C59.7415 56.9114 57.9744 53.0904 57.9744 54.0003Z" fill="#0E19B7"/>
<path opacity="0.2" d="M35.9744 32.1384C35.9744 34.6383 33.8077 35.8051 32.4744 36.1384L27.4744 36.6384L25.9744 36.6384C26.3077 36.6384 31.4744 37.1384 32.9744 36.6384C37.7415 35.0496 35.9744 31.2286 35.9744 32.1384Z" fill="#0E19B7"/>
<path opacity="0.2" d="M35.9744 54.1384C35.9744 56.6383 33.8077 57.8051 32.4744 58.1384L27.4744 58.6384L25.9744 58.6384C26.3077 58.6384 31.4744 59.1384 32.9744 58.6384C37.7415 57.0496 35.9744 53.2286 35.9744 54.1384Z" fill="#0E19B7"/>
<path d="M68.6711 30.0002C70.5659 29.6844 71.0396 29.0528 71.3554 27.1581C71.6711 29.0528 72.3027 29.6844 74.1975 30.0002C72.3027 30.316 71.6711 30.6318 71.3554 32.8423C71.0396 30.6318 70.5659 30.316 68.6711 30.0002Z" fill="white"/>
<path fill-rule="evenodd" clip-rule="evenodd" d="M71.3553 27C71.4325 27 71.4983 27.0558 71.511 27.1319C71.6673 28.0698 71.8973 28.6608 72.2959 29.0594C72.6945 29.458 73.2855 29.6879 74.2234 29.8443C74.2995 29.8569 74.3553 29.9228 74.3553 30C74.3553 30.0772 74.2995 30.1431 74.2234 30.1557C73.2703 30.3146 72.6854 30.4683 72.2904 30.8274C71.8999 31.1824 71.6687 31.7648 71.5116 32.8644C71.5005 32.9422 71.4339 33 71.3553 33C71.2767 33 71.2101 32.9422 71.199 32.8644C71.0409 31.7579 70.8475 31.1761 70.4936 30.8222C70.1396 30.4681 69.5984 30.3146 68.6451 30.1557C68.569 30.1431 68.5132 30.0772 68.5132 30C68.5132 29.9228 68.569 29.8569 68.6451 29.8443C69.5826 29.688 70.1304 29.4587 70.4885 29.0648C70.8498 28.6673 71.0421 28.0768 71.1995 27.1319C71.2122 27.0558 71.2781 27 71.3553 27ZM69.4542 29.9913C69.9996 30.1206 70.4099 30.2918 70.7169 30.5989C71.0269 30.9089 71.2183 31.3433 71.3597 31.966C71.5161 31.3388 71.7372 30.9035 72.078 30.5937C72.4118 30.2903 72.8473 30.1202 73.4052 29.9913C72.8399 29.8349 72.4054 29.6156 72.0726 29.2827C71.7366 28.9468 71.5163 28.5073 71.3597 27.9343C71.218 28.5029 71.0275 28.9414 70.7221 29.2773C70.4163 29.6137 70.0074 29.8344 69.4542 29.9913Z" fill="#114D84"/>
<path d="M6.21057 52.0002C8.73689 51.5791 9.36847 50.737 9.78952 48.2107C10.2106 50.737 11.0527 51.5791 13.579 52.0002C11.0527 52.4212 10.2106 52.8423 9.78952 55.7896C9.36847 52.8423 8.73689 52.4212 6.21057 52.0002Z" fill="white"/>
<path fill-rule="evenodd" clip-rule="evenodd" d="M9.78947 48C9.89239 48 9.98022 48.0744 9.99714 48.1759C10.2056 49.4264 10.5121 50.2144 11.0436 50.7459C11.5751 51.2774 12.3631 51.5839 13.6136 51.7923C13.7151 51.8093 13.7895 51.8971 13.7895 52C13.7895 52.1029 13.7151 52.1907 13.6136 52.2077C12.3429 52.4194 11.563 52.6244 11.0364 53.1031C10.5156 53.5766 10.2073 54.3531 9.99788 55.8192C9.98307 55.923 9.89424 56 9.78947 56C9.68471 56 9.59588 55.923 9.58106 55.8192C9.3703 54.3439 9.11247 53.5681 8.64061 53.0962C8.16852 52.6241 7.44698 52.4195 6.17592 52.2077C6.0744 52.1907 6 52.1029 6 52C6 51.8971 6.0744 51.8093 6.17592 51.7923C7.42583 51.584 8.15625 51.2783 8.6337 50.7531C9.11553 50.2231 9.37183 49.4358 9.58181 48.1759C9.59873 48.0744 9.68656 48 9.78947 48ZM7.25468 51.9884C7.98187 52.1608 8.52895 52.3891 8.93834 52.7985C9.35166 53.2118 9.60681 53.7911 9.79538 54.6213C10.0039 53.785 10.2987 53.2047 10.7531 52.7916C11.1981 52.387 11.7788 52.1603 12.5227 51.9884C11.7689 51.7799 11.1897 51.4874 10.7459 51.0436C10.298 50.5957 10.0041 50.0098 9.79532 49.2458C9.60648 50.0038 9.35237 50.5885 8.94525 51.0364C8.53747 51.4849 7.9923 51.7793 7.25468 51.9884Z" fill="#114D84"/>
</svg>
