<svg width="62" height="62" viewBox="0 0 62 62" fill="none" xmlns="http://www.w3.org/2000/svg">
<path d="M61.4883 4.32019C61.4883 1.52456 59.9846 0.00861331 57.1977 0.00369142C51.668 -0.00123047 46.1383 -0.00123047 40.6086 0.00369142C40.0845 0.00369142 39.5458 0.023379 39.0364 0.141504C36.2789 0.786272 34.5793 3.27183 34.8634 6.19051C35.1132 8.78434 37.5278 10.95 40.3294 10.9992C42.891 11.0484 45.4526 11.0386 48.0142 10.9992C48.8762 10.9844 49.6207 11.1469 50.2378 11.7621C50.4533 12.2346 50.7031 12.6972 50.7129 13.2337C50.7031 16.1721 50.6787 19.1105 50.6884 22.0488C50.6884 23.048 51.0215 23.9733 51.5946 24.7903C53.0198 26.8132 55.3414 27.5958 57.7218 26.8674C59.9406 26.1882 61.4785 24.121 61.4834 21.7043C61.4981 15.9063 61.4883 10.1133 61.4834 4.31527L61.4883 4.32019Z" fill="#0E19B7"/>
<path d="M57.9412 40.2178C53.9567 36.2143 49.9659 32.2171 45.9373 28.2577C43.2936 25.6624 39.3469 25.675 36.7913 28.2199C34.2357 30.7584 34.2231 34.6735 36.7724 37.3951C38.5223 39.2643 40.3163 41.1019 42.0347 42.9963C43.281 44.3729 43.067 45.7306 41.4871 46.621C39.1392 47.9407 36.6213 48.7616 33.9335 49.0269C28.3943 49.5636 23.5474 47.8586 19.1979 44.5055C19.0908 44.4171 18.9838 44.3287 18.8768 44.2403C18.5243 43.8614 18.1781 43.4762 17.8256 43.0973C14.3573 39.4032 12.3871 35.0334 12.3116 29.9564C12.2045 23.0418 15.0371 17.4975 20.5953 13.3929C22.7102 11.8332 23.8685 9.8314 23.4152 7.19816C22.6158 2.53158 17.5298 0.466668 13.6334 3.2704C5.58891 9.061 0.905724 16.9228 0.181845 26.8496C-0.611276 37.793 3.18437 46.9493 11.6758 54.0281C11.7702 54.1102 11.8709 54.1986 11.9653 54.2807L12.0346 54.3312C12.1416 54.3565 12.2171 54.4259 12.2486 54.5333C14.2125 56.3014 16.5164 57.5138 18.8894 58.6063C32.8509 65.0662 50.224 60.0145 58.5832 47.0693C60.1317 44.6697 59.9303 42.2133 57.9412 40.2178Z" fill="#939DE9"/>
</svg>
