<svg width="189" height="165" viewBox="0 0 189 165" fill="none" xmlns="http://www.w3.org/2000/svg">
<g clip-path="url(#clip0_4768_9477)">
<path d="M127.32 48.8493C127.06 50.3493 126.79 51.5993 126.46 52.9493C126.14 54.2693 125.78 55.5793 125.4 56.8793C124.64 59.4893 123.72 62.0593 122.66 64.6093C120.48 69.6693 117.78 74.7493 113.29 79.0993C112.17 80.1793 110.89 81.1693 109.48 82.0393C109.13 82.2493 108.75 82.4793 108.42 82.6593L107.5 83.1193C106.88 83.4293 106.28 83.7193 105.66 83.9993C103.21 85.1093 100.79 86.1093 98.3299 87.0193C93.4299 88.8593 88.4999 90.4193 83.4399 91.7093L81.5599 86.9293C86.0099 84.4293 90.5299 82.0193 94.9599 79.6093C97.1699 78.3893 99.3699 77.1993 101.47 75.9393C101.99 75.6193 102.52 75.3193 103.02 75.0093L103.78 74.5393C104.01 74.3893 104.16 74.2693 104.36 74.1393C105.09 73.6093 105.81 72.9793 106.49 72.2293C109.24 69.2693 111.39 65.0693 113.1 60.6893C113.98 58.4993 114.71 56.2093 115.4 53.9093C115.74 52.7593 116.06 51.5893 116.35 50.4293C116.63 49.2893 116.93 48.0393 117.14 47.0293L127.34 48.8393L127.32 48.8493Z" fill="#CE7A63"/>
<path d="M106.43 62.5387L117.23 70.5987C117.23 70.5987 117.65 70.1387 118.33 69.3487C118.83 68.7687 119.47 67.9987 120.22 67.0887C124.42 61.9787 130.56 52.6387 130.61 48.0687C130.68 41.2487 123.61 40.2487 115.67 47.2187C112.24 50.2287 110.46 55.2187 108.71 58.3087C108.13 59.3287 107.65 60.2187 107.27 60.9187C106.73 61.9287 106.43 62.5287 106.43 62.5287V62.5387Z" fill="#0B3573"/>
<path opacity="0.3" d="M130.69 48.8698C128.25 47.2598 126.47 51.4298 121.64 54.9598C119.49 56.5298 114.77 66.7898 115.16 69.0498L117.24 70.5998C117.24 70.5998 130.74 55.6498 130.68 48.8598L130.69 48.8698Z" fill="black"/>
<path d="M83.4699 86.3895L74.5399 84.0195L75.1599 92.8695C75.1599 92.8695 83.8899 93.7495 84.6999 91.1295L83.4699 86.3895Z" fill="#CE7A63"/>
<path d="M67.6699 88.6095L69.6999 94.6495L75.1599 92.8695L74.5399 84.0195L67.6699 88.6095Z" fill="#CE7A63"/>
<path d="M119.93 102.119H156.5C156.76 98.859 156 88.229 156.56 74.699C156.94 65.619 157.92 55.219 160.19 44.879C160.36 44.139 160.52 43.409 160.7 42.679C160.7 42.679 158.85 42.299 156.19 41.909C153.99 41.589 151.22 41.259 148.51 41.129C143.84 40.909 137.08 40.759 132.97 41.129C130.58 41.349 128.25 41.749 126.39 42.109C124.01 42.589 122.61 42.999 122.61 42.999C122.61 42.999 113.6 63.679 119.94 102.129L119.93 102.119Z" fill="#0B3573"/>
<path opacity="0.3" d="M156.56 74.6993C156.94 65.6193 157.92 55.2193 160.19 44.8793C157.75 44.6693 153.57 44.9093 152.88 48.8493C152.13 53.0893 153.07 63.0693 156.56 74.6993Z" fill="black"/>
<path d="M148.17 25.4299L144.01 28.8799L138.35 33.5799C138.52 34.3499 138.65 35.1199 138.71 35.8699C139.01 38.9399 138.22 39.9999 133.7 41.0699C133.7 41.0699 128.34 44.6199 136.3 45.2599C136.32 45.7599 136.41 46.9899 136.69 47.8099C137.54 46.5499 138.82 45.6299 139.25 45.3399C147.95 45.1799 149.1 41.1499 149.1 41.1499C145.72 37.8099 147.02 30.4199 148.17 25.4199V25.4299Z" fill="#CE7A63"/>
<path opacity="0.2" d="M138.35 33.5789C138.52 34.3489 138.65 35.1189 138.71 35.8689C140.82 35.4489 143.64 33.1989 143.94 31.0389C144.05 30.2289 144.07 29.4389 144.01 28.8789L138.35 33.5789Z" fill="black"/>
<path d="M162.52 266.839H151.72C151.72 266.839 143.03 220.309 139.59 196.599C139.05 192.919 138.48 188.089 137.9 182.469C136.98 173.379 136.05 162.479 135.2 151.969C132.62 158.909 130.65 168.829 129.13 180.069C123.72 220.369 124.27 265.879 124.27 265.879H113.33C104.89 201.399 116.16 122.029 119.92 102.109H156.48C156.54 106.849 158.54 174.139 159.96 199.439C161.23 222.739 162.52 266.829 162.52 266.829V266.839Z" fill="#263238"/>
<path d="M148.39 26.0493C148.39 26.0493 150.61 27.1493 151.28 25.8793C151.95 24.6093 151.29 22.6493 152.37 22.2893C153.45 21.9193 155.82 21.8693 155.67 20.5293C155.52 19.1893 154.01 18.1393 155.05 17.2693C156.08 16.4093 158.19 15.1993 157.25 14.1593C156.31 13.1193 155.44 11.4093 156.26 10.7893C157.08 10.1693 156.01 6.61933 153.91 6.85933C151.8 7.08933 152.16 5.37933 152.22 3.89933C152.27 2.40933 149.14 1.09933 148.39 2.61933C147.65 4.12933 146.04 2.20933 145.61 0.869331C145.17 -0.470669 144.26 -0.940669 142.38 0.0093312C140.49 0.959331 140.21 4.11933 139.24 2.28933C138.27 0.459331 136.11 -0.700669 135.06 0.329331C134.01 1.35933 134.64 2.64933 132.99 2.58933C131.34 2.51933 129.06 5.50933 129.86 5.96933C130.67 6.42933 130.55 7.24933 129.44 8.14933C128.32 9.03933 127.04 10.5093 128.49 11.1793C129.94 11.8493 129.85 12.8893 129.42 13.3193C128.99 13.7493 130.28 15.8393 132.24 15.7193C134.2 15.5993 148.39 26.0893 148.39 26.0893V26.0493Z" fill="#263238"/>
<path d="M131.23 7.17969C131.23 7.17969 127.51 16.0097 131.5 20.7697C135.48 25.5297 139.8 8.43969 139.8 8.43969L131.23 7.17969Z" fill="#263238"/>
<path d="M143.81 31.6385C140.59 34.4385 136.51 34.3585 133.42 32.4485C131.44 31.2285 129.87 29.2485 129.21 26.7985C129.12 26.4785 129.05 26.1485 128.99 25.8085C128.01 19.5885 129.72 9.58854 136.59 7.40854C141.47 5.81854 146.73 8.48854 148.32 13.3785C148.78 14.7685 148.89 16.2485 148.67 17.6985C147.74 24.4385 147.51 28.4485 143.8 31.6485L143.81 31.6385Z" fill="#CE7A63"/>
<path d="M138.22 18.7898C138.22 19.3398 137.85 19.7698 137.49 19.7398C137.12 19.7098 136.87 19.2398 136.91 18.6898C136.95 18.1398 137.29 17.7098 137.64 17.7398C138 17.7698 138.26 18.2298 138.22 18.7898Z" fill="#263238"/>
<path d="M131.98 18.2995C131.98 18.8495 131.6 19.2795 131.25 19.2495C130.89 19.2195 130.63 18.7495 130.67 18.1995C130.71 17.6495 131.05 17.2195 131.4 17.2495C131.76 17.2795 132.02 17.7795 131.98 18.2995Z" fill="#263238"/>
<path d="M133.94 18.7188C133.15 20.3587 132.14 21.8788 130.93 23.2388C131.66 23.8488 132.61 24.1088 133.55 23.9388L133.94 18.7188Z" fill="#BA4D3C"/>
<path d="M129.89 15.5497C130 15.6097 130.13 15.6097 130.23 15.5497C130.93 15.0997 131.79 15.0097 132.57 15.2897C132.73 15.3697 132.92 15.2897 133 15.1397C133.08 14.9797 133 14.7897 132.85 14.7097C131.88 14.3197 130.78 14.4297 129.9 14.9897C129.74 15.0797 129.69 15.2797 129.78 15.4297C129.81 15.4697 129.85 15.5097 129.89 15.5397V15.5497Z" fill="#263238"/>
<path d="M139.65 16.4C139.72 16.4 139.78 16.39 139.84 16.35C139.97 16.23 139.97 16.02 139.85 15.89C139.13 15.12 138.09 14.75 137.05 14.9C136.87 14.94 136.76 15.11 136.8 15.28C136.84 15.45 137.01 15.56 137.18 15.53C138 15.44 138.82 15.74 139.39 16.35C139.47 16.4 139.57 16.42 139.66 16.4H139.65Z" fill="#263238"/>
<path d="M144.36 8.83984L143.61 10.0498C145.75 11.0598 144.98 13.5898 144.38 14.7098C143.1 17.0898 144.03 21.1598 145.76 22.9498C145.76 22.9498 145.96 21.8698 146.84 22.2498C147.72 22.6198 146.86 27.2898 146.86 27.2898C146.86 27.2898 147.63 28.6098 149.91 22.8798C152.01 17.5698 152.77 13.0298 151.91 10.7598L144.36 8.84984V8.83984Z" fill="#263238"/>
<path d="M151.2 23.4893C150.33 24.9693 148.9 26.0393 147.24 26.4593C145.04 27.0093 144 25.0193 144.65 22.9693C145.25 21.1493 147.12 18.6093 149.31 18.9893C151.5 19.3693 152.24 21.6493 151.2 23.4793V23.4893Z" fill="#CE7A63"/>
<path d="M133.84 25.3092C134.46 26.1892 135.23 27.9092 135.23 27.9092C135.4 27.8692 135.57 27.8292 135.73 27.7792C138 27.1592 138.85 26.1192 139.1 25.1592C139.24 24.6292 139.19 24.1192 139.1 23.7192C139 23.2592 138.82 22.9492 138.82 22.9492C137.81 23.9992 135.74 24.7392 134.62 25.0892C134.15 25.2392 133.85 25.3092 133.85 25.3092H133.84Z" fill="#263238"/>
<path d="M134.62 25.089L135.05 25.849C137.19 25.259 138.61 24.559 139.11 23.729C139.01 23.269 138.83 22.959 138.83 22.959C137.82 24.009 135.75 24.749 134.63 25.099L134.62 25.089Z" fill="white"/>
<path d="M135.74 27.7802C138.01 27.1602 138.86 26.1202 139.11 25.1602C138.34 25.4002 137.45 25.7802 136.72 26.3502C136.17 26.7802 135.88 27.3002 135.73 27.7802H135.74Z" fill="#DE5753"/>
<path d="M139.43 4.8188C139.43 4.8188 135.76 4.8188 133.89 6.3488C132.02 7.8688 130.76 10.2488 131.43 10.4588C132.1 10.6688 134.03 9.5788 134.53 9.8188C135.03 10.0588 135.03 12.9788 136.88 11.9788C138.73 10.9888 137.69 10.9988 139.19 10.6188C140.7 10.2388 141.54 12.1188 142.17 11.9988C142.8 11.8688 143.48 11.3688 143.48 11.3688C143.48 11.3688 141.49 10.7088 141.37 10.0788C141.25 9.4488 139.34 9.1088 139.34 9.1088C139.34 9.1088 141.73 8.2988 142.47 8.9688C143.21 9.6388 142.78 11.1088 144.73 11.0688C146.68 11.0288 149.7 12.7388 150.01 10.2688C150.31 7.7988 143.86 3.1788 139.44 4.8188H139.43Z" fill="#263238"/>
<path d="M149.11 37.7793L139.8 41.7793L136.69 47.8093L139.8 45.7693L143.61 49.4293L151.67 41.3593L149.11 37.7793Z" fill="#0B3573"/>
<path d="M136.69 47.8095L135.73 42.4595C135.73 42.4595 135.82 40.8995 137.93 39.3595L134.61 37.7695C134.61 37.7695 129.47 43.9495 129.16 47.8095L133.66 44.8195L136.69 47.8095Z" fill="#0B3573"/>
<path opacity="0.2" d="M149.11 37.7793L139.8 41.7793L136.69 47.8093L139.8 45.7693L143.61 49.4293L151.67 41.3593L149.11 37.7793Z" fill="white"/>
<path opacity="0.2" d="M136.69 47.8095L135.73 42.4595C135.73 42.4595 135.82 40.8995 137.93 39.3595L134.61 37.7695C134.61 37.7695 129.47 43.9495 129.16 47.8095L133.66 44.8195L136.69 47.8095Z" fill="white"/>
<path opacity="0.3" d="M135.2 151.959C132.62 158.899 130.65 168.819 129.13 180.059C125.46 165.019 134.24 137.189 134.24 137.189L135.19 151.959H135.2Z" fill="black"/>
<path d="M185.91 98.838C188.99 99.968 189.93 105.118 188.01 110.328C186.09 115.538 182.04 118.848 178.96 117.708C175.88 116.578 174.94 111.428 176.86 106.218C178.78 101.008 182.83 97.698 185.91 98.838Z" fill="#263238"/>
<path d="M177.19 90.9981C176.81 90.2481 176.31 89.7081 175.66 89.4681C172.64 88.3581 167.82 93.8781 164.9 101.818C161.98 109.748 162.06 117.078 165.09 118.198C165.74 118.438 166.47 118.358 167.24 118.028C167.5 118.298 167.79 118.508 168.12 118.628C168.76 118.868 169.48 118.768 170.25 118.428C170.51 118.718 170.81 118.928 171.14 119.048C171.78 119.278 172.5 119.178 173.27 118.818C173.53 119.118 173.83 119.348 174.17 119.468C174.8 119.698 175.53 119.588 176.29 119.208C176.55 119.528 176.84 119.758 177.19 119.888C179.7 120.818 183.71 116.218 186.14 109.628C188.57 103.038 188.5 96.9381 185.98 96.0181C185.63 95.8881 185.25 95.8781 184.85 95.9581C184.51 95.1681 184.03 94.6181 183.4 94.3881C183.06 94.2581 182.68 94.2381 182.29 94.2981C181.94 93.5281 181.45 92.9781 180.82 92.7481C180.48 92.6281 180.12 92.5881 179.74 92.6381C179.38 91.8781 178.88 91.3381 178.24 91.1081C177.91 90.9881 177.56 90.9581 177.19 90.9981Z" fill="#263238"/>
<path opacity="0.2" d="M177.19 90.9981C176.81 90.2481 176.31 89.7081 175.66 89.4681C172.64 88.3581 167.82 93.8781 164.9 101.818C161.98 109.748 162.06 117.078 165.09 118.198C165.74 118.438 166.47 118.358 167.24 118.028C167.5 118.298 167.79 118.508 168.12 118.628C168.76 118.868 169.48 118.768 170.25 118.428C170.51 118.718 170.81 118.928 171.14 119.048C171.78 119.278 172.5 119.178 173.27 118.818C173.53 119.118 173.83 119.348 174.17 119.468C174.8 119.698 175.53 119.588 176.29 119.208C176.55 119.528 176.84 119.758 177.19 119.888C179.7 120.818 183.71 116.218 186.14 109.628C188.57 103.038 188.5 96.9381 185.98 96.0181C185.63 95.8881 185.25 95.8781 184.85 95.9581C184.51 95.1681 184.03 94.6181 183.4 94.3881C183.06 94.2581 182.68 94.2381 182.29 94.2981C181.94 93.5281 181.45 92.9781 180.82 92.7481C180.48 92.6281 180.12 92.5881 179.74 92.6381C179.38 91.8781 178.88 91.3381 178.24 91.1081C177.91 90.9881 177.56 90.9581 177.19 90.9981Z" fill="white"/>
<path d="M154.73 69.2187C140.1 63.8287 123.8 71.8786 119.36 87.0986C115.53 100.239 122.33 114.389 134.98 119.639C143.2 123.049 152.04 122.119 159.09 117.979C160.37 117.229 161.93 117.119 163.27 117.769C163.34 117.799 163.4 117.829 163.47 117.849C166.54 118.979 171.43 113.369 174.4 105.309C177.37 97.2586 177.28 89.8087 174.21 88.6787C174.14 88.6587 174.08 88.6287 174.01 88.6187C172.56 88.2387 171.44 87.1187 170.95 85.7087C168.37 78.3387 162.65 72.1287 154.74 69.2187H154.73Z" fill="#EBD27B"/>
<path opacity="0.7" d="M154.73 69.2187C140.1 63.8287 123.8 71.8786 119.36 87.0986C115.53 100.239 122.33 114.389 134.98 119.639C143.2 123.049 152.04 122.119 159.09 117.979C160.37 117.229 161.93 117.119 163.27 117.769C163.34 117.799 163.4 117.829 163.47 117.849C166.54 118.979 171.43 113.369 174.4 105.309C177.37 97.2586 177.28 89.8087 174.21 88.6787C174.14 88.6587 174.08 88.6287 174.01 88.6187C172.56 88.2387 171.44 87.1187 170.95 85.7087C168.37 78.3387 162.65 72.1287 154.74 69.2187H154.73Z" fill="white"/>
<path d="M171.56 99.2484C171.56 99.2484 159.73 92.8884 158.35 85.0684L156.59 89.8484L152.43 90.0584L157.86 95.6384L150.1 96.3684L154.75 101.668L147.78 102.688L150.81 105.538L149.05 110.318C149.05 110.318 158.72 105.478 168.01 108.898" stroke="#263238" stroke-width="0.65" stroke-linecap="round" stroke-linejoin="round"/>
<path d="M161.55 45.6797C162.71 46.5497 163.65 47.2997 164.64 48.1497C165.61 48.9897 166.56 49.8397 167.5 50.7097C169.37 52.4597 171.14 54.3297 172.83 56.3097C174.51 58.2997 176.11 60.3997 177.53 62.7097C178.95 65.0097 180.23 67.5097 181.11 70.3097C181.31 71.0197 181.53 71.7197 181.68 72.4697C181.83 73.0897 182.02 74.2397 182.03 75.0397C182.1 76.7497 181.9 78.1697 181.66 79.5397C181.17 82.2597 180.42 84.7097 179.58 87.0997C177.88 91.8697 175.8 96.3097 173.36 100.67L168.63 98.6797C169.82 94.1197 171 89.4697 171.9 84.9697C172.35 82.7197 172.7 80.4697 172.85 78.4097C172.92 77.3897 172.9 76.3997 172.8 75.7097C172.75 75.3097 172.71 75.2697 172.55 74.7297C172.44 74.2997 172.25 73.8597 172.1 73.4297C170.68 69.9097 168.03 66.3597 165.07 63.0997C163.59 61.4497 161.99 59.8797 160.35 58.3297C159.53 57.5597 158.69 56.7997 157.84 56.0597C157 55.3497 156.08 54.5597 155.33 53.9597L161.56 45.6797H161.55Z" fill="#CE7A63"/>
<path d="M153.05 56.8595C155.72 60.8795 159.58 65.5195 162.36 68.7395C163.09 69.5895 163.76 70.3495 164.31 70.9595C165.26 72.0295 165.86 72.6695 165.86 72.6695L177.26 61.6795C177.26 61.6795 176.94 61.1595 176.39 60.2995C175.97 59.6495 175.41 58.7895 174.75 57.8195C170.82 52.0595 163.24 41.9495 158.6 42.4895C151.67 43.2995 148.2 49.5795 153.05 56.8595Z" fill="#0B3573"/>
<path d="M173.41 100.45L169.92 107.17L165.37 98.8898C165.37 98.8898 169.53 93.4998 172.13 95.8698L173.4 100.45H173.41Z" fill="#CE7A63"/>
<path d="M163.1 108.971L159.67 101.951L165.38 98.8906L169.92 107.171L163.1 108.971Z" fill="#CE7A63"/>
<path d="M43.6199 142.721L88.3499 149.371L88.7099 185.571L77.5599 196.021L29.2899 187.091L31.4499 148.481L43.6199 142.721Z" fill="#0B3573"/>
<path opacity="0.4" d="M88.7099 185.559L84.3699 189.639L83.3999 190.539L77.5599 196.019L29.2899 187.079L31.4599 148.479L36.6499 146.019L38.2499 145.259L43.6199 142.709L88.3499 149.359L88.7099 185.559Z" fill="black"/>
<path opacity="0.2" d="M31.4599 148.479L75.5499 155.599L88.3499 149.359L43.6199 142.709L31.4599 148.479Z" fill="white"/>
<path opacity="0.1" d="M75.5499 155.599L77.5599 196.019L88.7099 185.559L88.3499 149.359L75.5499 155.599Z" fill="white"/>
<path d="M84.3699 189.64L83.3999 190.54L81.6599 152.71L36.6499 146.02L38.2499 145.26L82.6499 152.22L84.3699 189.64Z" fill="#263238"/>
<path d="M51.9799 147.569L54.7599 146.279L66.0899 147.819L63.5199 149.359L51.9799 147.569Z" fill="#263238"/>
<path d="M47.5899 147.03C47.5899 147.03 50.7399 135.66 51.2899 135.01C51.8399 134.37 67.6699 136.79 68.8499 136.94C70.0399 137.09 71.4699 149.6 71.4699 149.6L70.1799 150.64L67.2099 150.1C67.2099 150.1 66.6699 139.52 66.3699 139.17C66.0699 138.82 53.8599 137.04 53.4599 137.19C53.0599 137.34 51.5299 146.29 51.5299 146.29L50.0999 147.38L47.5799 147.03H47.5899Z" fill="#263238"/>
<path d="M88.3499 160.339C88.3499 160.339 85.5499 163.229 82.1299 164.749L82.1099 164.079L82.0499 162.319L81.9499 159.389L81.8999 157.969V157.559C81.8999 157.559 83.8599 155.989 85.0499 154.539L88.3499 160.339Z" fill="#0B3573"/>
<path d="M81.0199 149.789C81.0199 149.789 79.2399 151.299 78.7499 152.269L78.0399 152.169L77.0699 152.019L75.5199 151.799L74.0299 151.579L73.4999 151.499C73.4999 151.499 74.2999 148.409 77.7599 146.279L81.0199 149.789Z" fill="#0B3573"/>
<path opacity="0.2" d="M77.5599 147.02C75.7399 148.01 74.5399 150.39 74.0299 151.58L75.5199 151.8C75.4099 151.64 75.3499 151.44 75.3499 151.23C75.3499 150.65 75.8199 150.18 76.3999 150.18C76.9799 150.18 77.4499 150.65 77.4499 151.23C77.4499 151.55 77.2999 151.84 77.0699 152.02L78.0399 152.17C78.6999 151.03 80.0899 149.65 80.0899 149.65L77.5599 147.02Z" fill="white"/>
<path opacity="0.2" d="M84.8199 155.59C83.9899 156.59 82.7699 157.45 81.8999 157.97L81.9499 159.39C81.9499 159.39 81.9999 159.39 82.0199 159.39C82.7599 159.39 83.3699 160.05 83.3699 160.86C83.3699 161.67 82.7799 162.31 82.0499 162.33L82.1099 164.09C84.1499 163.24 87.4499 160.35 87.4499 160.35L84.8199 155.6V155.59Z" fill="white"/>
<path d="M45.5499 63.7012C51.2899 67.5112 51.8199 92.8312 52.3399 99.9512C52.8699 107.071 57.3499 126.851 57.3499 126.851L52.5999 128.561C52.5999 128.561 47.3599 109.671 45.5399 98.8912C44.8399 94.7312 45.5399 63.7012 45.5399 63.7012H45.5499Z" fill="#263238"/>
<path opacity="0.2" d="M57.3499 126.851L52.6099 128.561C52.6099 128.561 47.3699 109.671 45.5499 98.8912C45.4999 98.6012 45.4599 98.1912 45.4299 97.6612C45.2199 94.6312 45.2099 87.9812 45.2699 81.3512C45.3499 72.5012 45.5499 63.7012 45.5499 63.7012C48.8899 65.9112 50.4699 75.4112 51.2999 84.3612C51.6099 87.7012 51.8199 90.9712 51.9799 93.7512C52.1299 96.3412 52.2399 98.5112 52.3399 99.9412C52.8699 107.071 57.3499 126.851 57.3499 126.851Z" fill="white"/>
<path opacity="0.2" d="M51.9799 93.7516C50.1999 95.0116 47.7499 96.6116 45.4299 97.6616C45.2199 94.6316 45.2099 87.9816 45.2699 81.3516L46.8299 84.9116L51.2999 84.3616C51.6099 87.7016 51.8199 90.9716 51.9799 93.7516Z" fill="black"/>
<path d="M60.6099 87.091L67.5099 83.291L68.8199 90.751C68.8199 90.751 61.7799 93.281 60.5599 91.281L60.5999 87.101L60.6099 87.091Z" fill="#FFB573"/>
<path d="M74.1499 85.6613L73.7199 91.0813L68.8299 90.7412L67.5099 83.2812L74.1499 85.6613Z" fill="#FFB573"/>
<path d="M13.8299 27.3607C13.8299 27.3607 15.9599 20.3107 27.0899 21.2907C38.2199 22.2807 41.1199 32.2607 38.0899 40.2207C35.0599 48.1907 38.3499 54.5807 38.3499 54.5807C38.3499 54.5807 36.4399 53.8407 35.8399 51.5707C35.8399 51.5707 35.5099 53.5207 36.4999 55.5707C36.4999 55.5707 21.8799 58.4707 14.4899 56.3007C14.4899 56.3007 16.3899 53.7307 15.8999 50.6307C15.8999 50.6307 15.5399 53.8907 14.2199 55.0007C14.2199 55.0007 15.5999 51.1607 14.8799 48.4607C14.1499 45.7607 9.73991 45.4907 8.94991 38.3107C8.15991 31.1307 10.8599 26.6407 13.8299 27.3607Z" fill="#263238"/>
<path d="M44.4999 108.852C44.4999 108.852 49.7099 149.352 49.2499 175.062C51.0499 199.182 52.5699 249.802 55.3099 255.272C55.2199 256.502 51.6899 257.052 50.5399 256.312C50.5399 256.312 31.7299 214.222 34.1599 175.062C17.5999 134.222 18.5899 108.852 18.5899 108.852H44.5099H44.4999Z" fill="#FFB573"/>
<path d="M37.4399 108.852C37.4399 108.852 25.5999 154.562 20.9099 177.002C15.9799 200.572 10.9299 229.052 10.8599 255.862C9.53991 256.642 9.08991 258.022 6.41991 257.202C6.41991 257.202 -6.13009 203.282 4.49991 178.052C-0.160094 122.212 14.6099 108.852 14.6099 108.852H37.4399Z" fill="#FFB573"/>
<path d="M2.46991 169.072C3.04991 169.772 3.9799 170.502 5.2199 171.212C5.35991 166.032 6.84991 163.632 6.84991 163.632C6.84991 163.632 6.34991 167.642 7.64991 172.412C15.5499 175.752 30.7899 177.952 49.8199 173.282C49.8199 150.952 45.3999 113.352 45.0999 109.682C45.0999 109.682 22.5099 110.272 13.3399 110.272C3.30991 122.232 0.609905 160.652 2.46991 169.072Z" fill="#263238"/>
<path opacity="0.2" d="M2.46991 169.072C3.04991 169.772 3.9799 170.502 5.2199 171.212C5.35991 166.032 6.84991 163.632 6.84991 163.632C6.84991 163.632 6.34991 167.642 7.64991 172.412C15.5499 175.752 30.7899 177.952 49.8199 173.282C49.8199 150.952 45.3999 113.352 45.0999 109.682C45.0999 109.682 22.5099 110.272 13.3399 110.272C3.30991 122.232 0.609905 160.652 2.46991 169.072Z" fill="white"/>
<path d="M12.4499 84.2607H47.1199C47.4799 77.9607 47.3699 74.5107 47.2799 71.7607C47.1099 66.6407 42.8099 62.1707 37.3499 61.4507C35.8399 61.2507 34.2599 61.0707 32.7299 60.9407C28.1299 60.5507 23.8799 60.7007 18.6899 60.9407C17.3599 61.0007 16.0599 61.1007 14.8299 61.2107C10.2499 61.6507 7.08991 65.8507 8.65991 70.0207C10.6599 75.3107 11.8099 80.0507 12.4399 84.2407L12.4499 84.2607Z" fill="#0B3573"/>
<path opacity="0.7" d="M12.4499 84.2607H47.1199C47.4799 77.9607 47.3699 74.5107 47.2799 71.7607C47.1099 66.6407 42.8099 62.1707 37.3499 61.4507C35.8399 61.2507 34.2599 61.0707 32.7299 60.9407C28.1299 60.5507 23.8799 60.7007 18.6899 60.9407C17.3599 61.0007 16.0599 61.1007 14.8299 61.2107C10.2499 61.6507 7.08991 65.8507 8.65991 70.0207C10.6599 75.3107 11.8099 80.0507 12.4399 84.2407L12.4499 84.2607Z" fill="white"/>
<path d="M18.5699 60.3898L33.3699 78.4598C33.3699 78.4598 36.2499 69.1498 34.7399 61.1498C34.7399 61.1498 41.2599 61.0898 45.5499 63.7098C45.5499 63.7098 51.8099 73.9798 45.5499 102.99L47.3699 116.84L36.8999 120L33.4499 109.96L29.2699 120.53L9.07991 114.85L14.7499 104.18C14.7499 104.18 12.8999 79.6498 7.36991 68.4398C7.36991 68.4398 8.24991 60.2798 18.5599 60.3898H18.5699Z" fill="#263238"/>
<path d="M41.6599 75.2008L34.2299 80.2008L35.5399 84.9108C30.3299 76.7408 20.2699 75.2008 20.2699 75.2008L23.4199 70.9308H15.6299C15.4599 65.5008 19.3199 59.7908 19.3199 59.7908C19.7899 59.7008 20.2399 59.6208 20.6899 59.5508C21.5599 61.3608 25.8899 68.4708 33.2799 77.4008C33.2799 77.4008 36.3199 65.3308 31.7799 60.2708C39.6699 62.9008 42.3199 69.6108 42.3199 69.6108L37.5899 71.0708L41.6599 75.2008Z" fill="#263238"/>
<path opacity="0.2" d="M41.6599 75.2008L34.2299 80.2008L35.5399 84.9108C30.3299 76.7408 20.2699 75.2008 20.2699 75.2008L23.4199 70.9308H15.6299C15.4599 65.5008 19.3199 59.7908 19.3199 59.7908C19.7899 59.7008 20.2399 59.6208 20.6899 59.5508C21.5599 61.3608 25.8899 68.4708 33.2799 77.4008C33.2799 77.4008 36.3199 65.3308 31.7799 60.2708C39.6699 62.9008 42.3199 69.6108 42.3199 69.6108L37.5899 71.0708L41.6599 75.2008Z" fill="white"/>
<path d="M19.6699 45.1504C20.8899 49.6704 22.3899 57.9404 19.4599 60.9604C19.4599 60.9604 17.3499 64.9204 29.2699 64.5604C30.3099 67.0404 32.3199 71.6004 32.3199 71.6004C32.3199 71.6004 32.4699 66.2504 31.6399 64.4404C39.3099 63.7804 33.4899 60.9704 33.4899 60.9704C28.3599 59.7704 28.2199 56.0304 28.8299 52.5204L19.6599 45.1604L19.6699 45.1504Z" fill="#FFB573"/>
<path opacity="0.2" d="M23.4099 48.1602L28.8299 52.5102C28.6799 53.3402 28.5799 54.1802 28.5799 55.0002C26.6399 54.7202 23.8299 52.6102 23.4799 50.6002C23.2999 49.6002 23.2699 48.6302 23.3999 48.1602H23.4099Z" fill="black"/>
<path d="M15.8199 36.0904C17.1899 43.3804 17.6199 46.4904 21.7799 49.9904C28.0399 55.2504 36.6399 52.4704 37.4599 45.0304C38.1999 38.3404 35.8299 27.5404 28.3199 25.1304C20.9199 22.7604 14.4499 28.8004 15.8199 36.0904Z" fill="#FFB573"/>
<path d="M22.0899 30.821C18.0699 36.011 26.3299 41.991 18.0699 41.641C9.79991 41.291 13.1599 29.621 18.0699 26.971C22.9799 24.321 22.0899 30.821 22.0899 30.821Z" fill="#263238"/>
<path d="M18.0899 27.0615C19.1299 32.0315 19.9299 33.3215 24.3499 31.9715C23.2899 30.7015 23.5199 28.5915 23.5199 28.5915C23.5199 28.5915 24.2499 30.6515 25.9999 31.3215C27.3299 30.7915 28.4899 30.3915 29.6899 30.1915C29.2999 29.3015 29.4699 28.0415 29.4699 28.0415C29.4699 28.0415 30.0099 29.4015 31.1399 30.0715C32.3099 30.0715 33.5799 30.2715 35.1299 30.7715C35.1099 25.5315 26.2299 19.8815 18.0899 27.0515V27.0615Z" fill="#263238"/>
<path d="M27.3699 37.3003C27.4599 37.9203 27.8499 38.3903 28.2499 38.3603C28.6499 38.3303 28.8899 37.8103 28.8099 37.1903C28.7199 36.5703 28.3299 36.1003 27.9299 36.1303C27.5299 36.1603 27.2899 36.6803 27.3699 37.3003Z" fill="#263238"/>
<path d="M34.8199 36.8608C34.9099 37.4808 35.2999 37.9508 35.6999 37.9208C36.0999 37.8908 36.3399 37.3708 36.2599 36.7508C36.1699 36.1308 35.7799 35.6608 35.3799 35.6908C34.9799 35.7208 34.7399 36.2408 34.8199 36.8608Z" fill="#263238"/>
<path d="M35.1999 35.7409L36.5899 35.2109C36.5899 35.2109 36.0099 36.4209 35.1999 35.7409Z" fill="#263238"/>
<path d="M32.8899 38.0312C32.8899 38.0312 34.2999 40.6113 35.6099 41.8113C34.9199 42.6313 33.5099 42.3813 33.5099 42.3813L32.8899 38.0312Z" fill="#ED893E"/>
<path d="M30.3699 44.9199C30.6899 44.9499 31.0299 44.9599 31.3999 44.9299C31.4999 44.9299 31.5699 44.8399 31.5499 44.7399C31.5399 44.6399 31.4499 44.5699 31.3499 44.5699C28.6999 44.7699 27.1899 42.9699 27.1699 42.9499C27.0999 42.8699 26.9899 42.8499 26.9199 42.9099C26.8499 42.9699 26.8399 43.0799 26.8999 43.1599C26.9599 43.2299 28.1699 44.6799 30.3699 44.9099V44.9199Z" fill="#263238"/>
<path d="M15.1099 43.1212C15.8599 44.6212 17.0799 45.5412 18.2099 45.8412C19.9099 46.2912 20.6399 44.3412 20.0799 42.4012C19.5699 40.6512 18.0799 38.3112 16.4199 38.7312C14.7899 39.1512 14.2599 41.4112 15.1099 43.1212Z" fill="#FFB573"/>
<path d="M25.2899 33.9899C25.3799 33.9899 25.4799 33.9599 25.5399 33.8799C26.5699 32.7199 27.8799 32.9699 27.8999 32.9699C28.0899 33.0099 28.2799 32.8799 28.2999 32.6799C28.3199 32.4799 28.1899 32.2899 27.9899 32.2499C27.9199 32.2399 26.2799 31.9199 24.9899 33.3599C24.8599 33.4999 24.8799 33.7299 25.0299 33.8699C25.0999 33.9399 25.1899 33.9699 25.2799 33.9699L25.2899 33.9899Z" fill="#263238"/>
<path d="M36.4899 33.3212C36.5799 33.3212 36.6699 33.3012 36.7399 33.2412C36.8799 33.1112 36.8899 32.8912 36.7499 32.7312C35.3699 31.1812 33.7299 31.3512 33.6599 31.3512C33.4599 31.3712 33.3299 31.5512 33.3699 31.7512C33.4099 31.9512 33.5899 32.0912 33.7899 32.0712C33.8499 32.0712 35.1299 31.9612 36.2199 33.1812C36.2899 33.2612 36.3899 33.3012 36.4799 33.3112L36.4899 33.3212Z" fill="#263238"/>
<path d="M27.7499 36.1804L29.1399 35.6504C29.1399 35.6504 28.5599 36.8604 27.7499 36.1804Z" fill="#263238"/>
<path d="M59.1999 139.231L60.4299 137.281C60.8899 136.551 60.9699 135.631 60.6399 134.831L59.0999 131.081C58.4799 129.581 57.1799 128.471 55.5999 128.111L54.6199 127.881C52.3599 130.981 52.2099 135.991 52.2099 135.991L52.0099 137.411C51.8299 138.681 52.6299 139.801 53.8599 139.991L56.6799 140.431C57.6499 140.581 58.6599 140.101 59.2099 139.221L59.1999 139.231Z" fill="#FFB573"/>
<path d="M44.9399 111.06C34.4899 112.22 23.5899 112.16 13.1399 111C12.6799 110.95 12.3999 110.45 12.5899 110.01C12.8499 109.42 13.1099 108.82 13.3599 108.22C13.4799 107.94 13.7499 107.78 14.0399 107.81C24.0799 108.88 34.5699 108.93 44.6199 107.81C44.9899 107.77 45.3199 108.05 45.3599 108.43C45.4199 109.05 45.4899 109.66 45.5499 110.28C45.5899 110.66 45.3199 111.01 44.9399 111.05V111.06Z" fill="#263238"/>
<path d="M29.8599 59.1406C29.8599 59.1406 32.1199 61.5606 31.6499 64.4406L36.8599 65.5406C36.8599 65.5406 36.0699 59.6206 29.8599 59.1406Z" fill="#0B3573"/>
<path d="M29.2699 64.5611C29.2699 64.5611 22.3099 60.5511 20.7499 58.3711L17.6499 60.7011C17.6499 60.7011 16.6799 64.3411 20.8899 67.6011L29.2699 64.5511V64.5611Z" fill="#0B3573"/>
<path opacity="0.6" d="M29.8599 59.1406C29.8599 59.1406 32.1199 61.5606 31.6499 64.4406L36.8599 65.5406C36.8599 65.5406 36.0699 59.6206 29.8599 59.1406Z" fill="white"/>
<path opacity="0.6" d="M29.2699 64.5611C29.2699 64.5611 22.3099 60.5511 20.7499 58.3711L17.6499 60.7011C17.6499 60.7011 16.6799 64.3411 20.8899 67.6011L29.2699 64.5511V64.5611Z" fill="white"/>
<path d="M61.0699 92.8802C56.2799 93.9902 51.4799 94.8302 46.5599 95.3602C43.9799 95.6502 41.3799 95.8302 38.7199 95.8902C36.0399 95.9302 33.3499 95.8502 30.3999 95.3202C28.9199 95.0302 27.3699 94.6402 25.5899 93.6702L24.9399 93.2602L24.5099 92.9702L23.6499 92.3902C23.0799 92.0002 22.4899 91.6102 21.9499 91.1802C19.7299 89.5302 17.6999 87.6502 15.7999 85.6402C13.9199 83.6202 12.1999 81.4602 10.6399 79.1902C9.8799 78.0402 9.15991 76.8602 8.48991 75.6502C8.13991 75.0402 7.82991 74.4202 7.49991 73.7902L7.04991 72.8102C6.89991 72.4602 6.76991 72.1802 6.57991 71.7002C5.60991 69.3002 6.32991 65.3502 8.72991 64.4002C11.0199 63.4802 14.0599 65.7402 15.1199 67.9302L15.2599 68.2202L15.5499 68.8402L15.9299 69.5702C16.1799 70.0602 16.4399 70.5602 16.7199 71.0502C17.2599 72.0402 17.8799 73.0102 18.4999 73.9802C19.7299 75.9202 21.1099 77.7602 22.6099 79.5002C24.1199 81.2302 25.6899 82.9102 27.4299 84.3902C27.8399 84.7802 28.2899 85.1402 28.7299 85.4902L29.8699 86.4202C30.2799 86.7102 31.1799 87.0702 32.1499 87.3302C34.1499 87.8702 36.5099 88.1202 38.8899 88.3102C41.2699 88.4902 43.7299 88.5302 46.1799 88.5502C50.9699 88.5502 60.7399 87.1302 60.7399 87.1302L61.0599 92.8502L61.0699 92.8802Z" fill="#263238"/>
<path opacity="0.2" d="M61.0699 92.8802C56.2799 93.9902 51.4799 94.8302 46.5599 95.3602C43.9799 95.6502 41.3799 95.8302 38.7199 95.8902C36.0399 95.9302 33.3499 95.8502 30.3999 95.3202C28.9199 95.0302 27.3699 94.6402 25.5899 93.6702L24.9399 93.2602L24.5099 92.9702L23.6499 92.3902C23.0799 92.0002 22.4899 91.6102 21.9499 91.1802C19.7299 89.5302 17.6999 87.6502 15.7999 85.6402C13.9199 83.6202 12.1999 81.4602 10.6399 79.1902C9.8799 78.0402 9.15991 76.8602 8.48991 75.6502C8.13991 75.0402 7.82991 74.4202 7.49991 73.7902L7.04991 72.8102C6.89991 72.4602 6.76991 72.1802 6.57991 71.7002C5.60991 69.3002 6.32991 65.3502 8.72991 64.4002C11.0199 63.4802 14.0599 65.7402 15.1199 67.9302L15.2599 68.2202L15.5499 68.8402L15.9299 69.5702C16.1799 70.0602 16.4399 70.5602 16.7199 71.0502C17.2599 72.0402 17.8799 73.0102 18.4999 73.9802C19.7299 75.9202 21.1099 77.7602 22.6099 79.5002C24.1199 81.2302 25.6899 82.9102 27.4299 84.3902C27.8399 84.7802 28.2899 85.1402 28.7299 85.4902L29.8699 86.4202C30.2799 86.7102 31.1799 87.0702 32.1499 87.3302C34.1499 87.8702 36.5099 88.1202 38.8899 88.3102C41.2699 88.4902 43.7299 88.5302 46.1799 88.5502C50.9699 88.5502 60.7399 87.1302 60.7399 87.1302L61.0599 92.8502L61.0699 92.8802Z" fill="white"/>
<path d="M58.0499 86.4205L58.5999 93.7005L61.6199 93.1305L61.1599 86.3105L58.0499 86.4205Z" fill="#0B3573"/>
<path opacity="0.7" d="M58.0499 86.4205L58.5999 93.7005L61.6199 93.1305L61.1599 86.3105L58.0499 86.4205Z" fill="white"/>
<path d="M58.4199 126.32L51.2899 127.9L52.2799 130.8L58.9699 129.39L58.4199 126.32Z" fill="#0B3573"/>
<path opacity="0.7" d="M58.4199 126.32L51.2899 127.9L52.2799 130.8L58.9699 129.39L58.4199 126.32Z" fill="white"/>
</g>
<defs>
<clipPath id="clip0_4768_9477">
<rect width="189" height="164" fill="white" transform="translate(0 0.5)"/>
</clipPath>
</defs>
</svg>
