<svg width="50" height="50" viewBox="0 0 50 50" fill="none" xmlns="http://www.w3.org/2000/svg">
<path d="M37.6902 46.5407C37.031 46.944 36.3456 47.2975 35.646 47.6261C34.9316 47.9614 34.2023 48.259 33.4617 48.5303C32.7641 48.7862 32.0538 48.999 31.336 49.1909C30.5011 49.4137 29.6547 49.5854 28.8023 49.7181C28.2912 49.7975 27.7761 49.8494 27.261 49.9026C26.251 50.0063 25.2397 50.0083 24.2277 49.9942C23.6203 49.9854 23.015 49.9275 22.4097 49.8682C21.3714 49.7672 20.3473 49.5861 19.3319 49.3545C17.8465 49.0158 16.4076 48.5317 15.0112 47.9257C13.8032 47.4012 12.6471 46.777 11.5354 46.0707C10.6951 45.5367 9.8952 44.9482 9.12357 44.3214C8.70745 43.9834 8.30682 43.6265 7.91562 43.2602C7.52374 42.8926 7.14264 42.5155 6.77702 42.1209C6.25317 41.5553 5.75289 40.9709 5.27617 40.3649C4.57995 39.4808 3.95578 38.5489 3.38884 37.5793C2.93703 36.8064 2.53034 36.0085 2.16742 35.189C1.79103 34.34 1.45638 33.4747 1.17493 32.5906C0.830862 31.5113 0.567591 30.4124 0.369632 29.296C0.2619 28.6874 0.179081 28.0753 0.113768 27.4626C0.0740415 27.0869 0.0572082 26.7064 0.0322951 26.328C-0.0128179 25.6338 0.000648694 24.9396 0.00940196 24.2461C0.0168086 23.6502 0.0726948 23.0563 0.129928 22.4618C0.206687 21.6625 0.326539 20.8707 0.482078 20.0849C0.620111 19.3853 0.796522 18.6932 0.995154 18.007C1.27728 17.0341 1.6227 16.0847 2.01929 15.1535C2.26034 14.5865 2.51957 14.0277 2.80573 13.4829C3.42318 12.3093 4.11536 11.1822 4.91123 10.119C5.4068 9.45711 5.92998 8.82014 6.48345 8.20539C7.00057 7.63037 7.54192 7.08026 8.11088 6.55978C9.15858 5.60096 10.2803 4.73304 11.4769 3.96747C12.3589 3.40322 13.2706 2.88947 14.2166 2.44036C15.8932 1.64448 17.6358 1.03512 19.445 0.621025C20.1884 0.450673 20.9385 0.311294 21.6953 0.215008C22.1861 0.152388 22.681 0.112662 23.1746 0.0688957C24.0741 -0.0119037 24.9751 -0.00315044 25.8753 0.0136828C26.4422 0.024456 27.0099 0.0742823 27.5755 0.133535C28.4568 0.225781 29.3301 0.360447 30.196 0.546285C30.9381 0.705191 31.672 0.894396 32.3978 1.11794C33.8233 1.55762 35.1989 2.11985 36.5213 2.80732C37.6983 3.4187 38.8234 4.11694 39.8873 4.91147C40.5498 5.40637 41.1854 5.93156 41.8009 6.48369C42.3638 6.98869 42.9024 7.51792 43.4115 8.07477C44.1912 8.92787 44.911 9.83081 45.5701 10.7829C46.3303 11.8804 46.9996 13.0291 47.5733 14.2324C48.355 15.8712 48.9556 17.5761 49.3617 19.3476C49.5509 20.1725 49.7024 21.004 49.8047 21.845C49.8821 22.4813 49.9347 23.1183 49.9751 23.7586C50.0215 24.504 50.0148 25.2487 49.9926 25.992C49.971 26.7145 49.8983 27.435 49.8087 28.1548C49.6418 29.4967 49.3509 30.8104 48.9819 32.1085C48.8843 32.4513 48.7873 32.7967 48.6466 33.1266C48.5422 32.658 48.4372 32.1893 48.2864 31.7328C47.609 29.6825 46.4482 27.9575 44.7958 26.5657C43.1657 25.1921 41.2797 24.3821 39.185 24.0427C39.0335 24.0178 39.0133 23.9667 39.0139 23.8354C39.018 22.585 39.0187 21.3346 39.016 20.0842C39.0133 18.7396 39.0651 17.395 39.0012 16.0503C38.9688 15.3723 38.8773 14.701 38.7278 14.0391C38.48 12.9369 38.1009 11.8898 37.3865 10.993C36.9913 10.4967 36.5179 10.0927 35.9469 9.80387C35.5483 9.60188 35.1161 9.51502 34.6912 9.39853C32.1548 8.70433 29.619 8.00609 27.0826 7.31121C24.2155 6.52544 21.3478 5.74101 18.4801 4.95928C17.4937 4.69062 16.5127 4.40311 15.4811 4.33443C14.1958 4.24892 12.944 4.39368 11.7172 4.77613C10.2096 5.24612 8.89329 6.03728 7.752 7.13009C6.27135 8.54744 5.33543 10.2678 4.88026 12.2548C4.70991 12.9995 4.65335 13.761 4.652 14.5239C4.64796 16.1776 4.65065 17.832 4.65065 19.4857C4.65065 22.5244 4.65065 25.5638 4.65065 28.6025C4.65065 28.7877 4.652 28.9742 4.6924 29.1546C4.87689 29.9707 5.37852 30.5027 6.15891 30.7861C11.6775 32.7906 17.1954 34.7965 22.7127 36.803C23.8378 37.2124 24.9831 37.2932 26.1467 37.007C26.3392 36.9599 26.3608 37.0198 26.3864 37.1767C26.4799 37.7517 26.6348 38.3119 26.8227 38.8634C27.6933 41.4166 29.2864 43.3996 31.5602 44.8378C32.6624 45.5354 33.861 46.0094 35.1369 46.2848C35.9779 46.4666 36.8283 46.5534 37.6888 46.5427L37.6902 46.5407Z" fill="#E5E7FA"/>
<path d="M37.6902 46.5406C36.8297 46.5521 35.9793 46.4645 35.1383 46.2827C33.8623 46.0073 32.6645 45.5326 31.5616 44.8357C29.2884 43.3975 27.6953 41.4146 26.824 38.8613C26.6362 38.3098 26.4813 37.7496 26.3877 37.1746C26.3621 37.0177 26.3399 36.9578 26.148 37.0049C24.9852 37.2911 23.8398 37.2103 22.714 36.8009C17.1968 34.7944 11.6782 32.7886 6.16026 30.7841C5.3792 30.5006 4.87824 29.968 4.69375 29.1526C4.65268 28.9721 4.652 28.7856 4.652 28.6005C4.652 25.5617 4.652 22.5223 4.652 19.4836C4.652 17.8299 4.64931 16.1755 4.65335 14.5218C4.65537 13.7583 4.71126 12.9974 4.88161 12.2527C5.33678 10.2657 6.27338 8.54538 7.75335 7.12802C8.89464 6.03521 10.211 5.24472 11.7186 4.77407C12.9454 4.39162 14.1978 4.24685 15.4825 4.33236C16.514 4.40104 17.4951 4.68855 18.4815 4.95721C21.3499 5.73827 24.2169 6.52337 27.0839 7.30915C29.6204 8.00402 32.1554 8.70294 34.6925 9.39646C35.1174 9.51295 35.549 9.59981 35.9483 9.80181C36.5193 10.0907 36.992 10.4947 37.3879 10.9909C38.1023 11.8878 38.4813 12.9348 38.7291 14.037C38.8779 14.6989 38.9702 15.3696 39.0025 16.0483C39.0665 17.3929 39.0146 18.7375 39.0173 20.0822C39.02 21.3326 39.0193 22.5829 39.0153 23.8333C39.0153 23.9646 39.0348 24.0158 39.1863 24.0407C41.281 24.38 43.167 25.19 44.7972 26.5636C46.4495 27.9554 47.6103 29.6805 48.2877 31.7308C48.4385 32.1873 48.5436 32.6559 48.6479 33.1245C48.7375 33.705 48.8156 34.2854 48.8338 34.8752C48.8789 36.3431 48.6493 37.7638 48.1423 39.1394C47.5255 40.8119 46.5667 42.2562 45.2645 43.4797C44.0094 44.6593 42.5604 45.501 40.9255 46.0208C39.9404 46.3339 38.9278 46.515 37.8902 46.5339C37.8228 46.5352 37.7562 46.5393 37.6888 46.542L37.6902 46.5406ZM48.2197 35.2334C48.1975 29.3337 43.4997 24.5423 37.5266 24.547C31.5925 24.5524 26.8536 29.2657 26.8503 35.2253C26.8469 41.189 31.606 45.9023 37.5185 45.9124C43.4418 45.9232 48.1928 41.1668 48.2197 35.2327V35.2334ZM18.3354 20.2586C18.3731 18.8318 18.4808 17.4272 18.7421 16.0355C19.0727 14.2767 19.6134 12.5988 20.5809 11.0784C21.568 9.52709 22.8857 8.37839 24.6431 7.77374C24.901 7.68486 25.1629 7.60878 25.4397 7.52192C25.3831 7.50239 25.3467 7.48758 25.309 7.47748C23.7146 7.04049 22.1208 6.60148 20.525 6.16853C20.2126 6.08369 19.9069 5.94364 19.5837 5.93623C18.3455 5.9066 17.1214 6.00491 15.9424 6.42507C14.5344 6.92737 13.4376 7.81953 12.6444 9.08135C12.0182 10.0772 11.6156 11.1666 11.3449 12.3052C10.92 14.0902 10.7726 15.9075 10.7584 17.7383C10.7577 17.8279 10.788 17.8602 10.8722 17.8858C11.3691 18.0386 11.8633 18.1996 12.3582 18.3571C14.3446 18.9894 16.3316 19.6216 18.336 20.2593L18.3354 20.2586ZM32.6995 9.53652C32.7002 9.52574 32.7008 9.51564 32.7022 9.50487C30.8445 8.99583 28.9861 8.48747 27.129 7.97574C26.9843 7.93601 26.8422 7.93399 26.6974 7.95217C26.4362 7.98449 26.177 8.02489 25.9184 8.07539C23.8957 8.46862 22.3457 9.56278 21.2064 11.2582C20.4523 12.3813 19.9642 13.6256 19.6275 14.9279C19.1703 16.6987 18.9899 18.5073 18.9622 20.3333C18.9609 20.4269 18.9878 20.4673 19.0814 20.497C20.9176 21.0767 22.7517 21.6605 24.5859 22.2463C24.6734 22.2739 24.7266 22.3028 24.7327 22.1695C24.7596 21.6207 24.8242 21.076 24.897 20.532C25.0727 19.2143 25.3575 17.9221 25.7824 16.6623C26.2113 15.3877 26.7755 14.1798 27.5532 13.0769C28.7147 11.4306 30.2243 10.2583 32.1709 9.67993C32.346 9.62809 32.5237 9.58432 32.6995 9.53719V9.53652ZM25.3609 22.216C25.4215 22.1884 25.4565 22.1729 25.4908 22.1567C29.7422 20.1751 33.9929 18.1921 38.2457 16.2139C38.3602 16.1607 38.3844 16.0941 38.377 15.9816C38.3352 15.383 38.2551 14.7905 38.1238 14.2047C37.8949 13.1792 37.5501 12.2036 36.8923 11.3639C36.4486 10.797 35.8897 10.3896 35.2016 10.1748C34.4784 9.94927 33.7418 9.96677 33.0092 10.1176C31.0842 10.5128 29.5422 11.5222 28.341 13.0648C27.3647 14.3185 26.719 15.7399 26.2483 17.2461C25.8787 18.4285 25.6316 19.6385 25.4814 20.868C25.4282 21.3063 25.3703 21.7453 25.3609 22.216ZM18.3354 29.092C18.3354 28.9351 18.3354 28.7782 18.3354 28.6213C18.3354 27.0181 18.3354 25.4149 18.3354 23.8117C18.3354 23.7289 18.3488 23.6555 18.2324 23.6198C17.6183 23.432 17.0076 23.2354 16.3962 23.0374C16.2676 22.9957 16.2184 23.0327 16.2205 23.1647C16.2238 23.3721 16.2272 23.5794 16.2198 23.7868C16.1888 24.6049 15.5498 25.3072 14.6247 25.2931C13.7891 25.2803 12.9959 24.5208 12.8848 23.6724C12.8289 23.2421 12.8653 22.8105 12.8579 22.3789C12.8518 22.0261 12.7501 21.8793 12.4188 21.7736C11.9287 21.6174 11.4378 21.4612 10.9476 21.3056C10.8192 21.2648 10.7548 21.3141 10.7544 21.4538C10.7544 24.8339 10.7557 28.214 10.7503 31.5941C10.7503 31.7422 10.7934 31.8062 10.9321 31.856C13.342 32.7266 15.7498 33.6033 18.1583 34.4786C18.2759 34.5213 18.3349 34.4804 18.3354 34.3561C18.3354 32.6014 18.3354 30.8474 18.3354 29.0927V29.092ZM18.9521 23.8542C18.9521 23.9444 18.9521 24.0117 18.9521 24.0784C18.9521 27.5258 18.9521 30.9733 18.9521 34.4207C18.9521 34.4934 18.9636 34.5729 18.9394 34.6375C18.8983 34.7452 18.9521 34.7654 19.0343 34.7957C20.3439 35.2698 21.6529 35.7485 22.9625 36.2225C23.4756 36.4084 24.0061 36.5141 24.5522 36.543C24.6788 36.5498 24.7084 36.5141 24.7078 36.3882C24.7037 32.8734 24.7037 29.3586 24.7078 25.8438C24.7078 25.7213 24.6694 25.6735 24.5563 25.6378C23.4756 25.2971 22.3969 24.9497 21.3169 24.6049C20.5358 24.3558 19.7541 24.1087 18.9528 23.8542H18.9521ZM17.5893 5.37804C17.1106 5.24136 16.6325 5.10938 16.139 5.03464C14.8974 4.84679 13.6712 4.91614 12.4559 5.21644C11.487 5.45615 10.5719 5.82917 9.72822 6.36312C8.34184 7.24047 7.24432 8.3959 6.45181 9.83413C5.81686 10.9862 5.43643 12.2197 5.32129 13.532C5.24924 14.3549 5.2957 15.1797 5.2782 16.0032C5.27618 16.1028 5.32937 16.125 5.39738 16.1466C6.93526 16.6334 8.47381 17.1182 10.0097 17.609C10.1147 17.6427 10.1315 17.6286 10.1322 17.5256C10.1363 16.8468 10.174 16.1701 10.2272 15.4935C10.3234 14.2747 10.4978 13.0681 10.8096 11.8858C11.2042 10.3883 11.7879 8.98237 12.8262 7.79731C13.7722 6.71729 14.9485 6.02646 16.3228 5.65141C16.7382 5.53829 17.1618 5.4649 17.5887 5.37737L17.5893 5.37804ZM38.3884 19.5664C38.2948 19.6095 38.2295 19.6391 38.1642 19.6694C33.9344 21.6436 29.7052 23.6185 25.474 25.5893C25.3636 25.6405 25.3366 25.7011 25.3366 25.8142C25.3393 28.3372 25.3387 30.8601 25.3387 33.3831C25.3387 34.381 25.3407 35.3788 25.336 36.3774C25.336 36.4946 25.373 36.5262 25.4774 36.5033C25.7063 36.4528 25.9393 36.4205 26.1642 36.3484C26.2416 36.3235 26.2679 36.2979 26.2604 36.2097C26.1796 35.2395 26.2106 34.2726 26.3816 33.3131C26.6335 31.9058 27.1136 30.5834 27.8589 29.3593C28.8864 27.6713 30.2587 26.3313 31.981 25.3718C33.9196 24.2925 36.0062 23.803 38.2302 23.9484C38.3554 23.9565 38.3918 23.9303 38.3911 23.7996C38.3851 22.824 38.3878 21.8483 38.3878 20.8727C38.3878 20.4471 38.3878 20.0223 38.3878 19.5671L38.3884 19.5664ZM10.1248 26.2936C10.1248 24.5955 10.1235 22.8974 10.1275 21.1992C10.1275 21.0875 10.1026 21.0336 9.98813 20.9979C8.46708 20.5198 6.94738 20.0377 5.42902 19.5503C5.29099 19.5058 5.27887 19.5442 5.27887 19.6688C5.28224 22.6617 5.28022 25.6546 5.28156 28.6476C5.28156 29.4185 5.64112 29.9256 6.36562 30.1895C7.55876 30.6245 8.75257 31.0581 9.94571 31.4917C10.0647 31.5348 10.1244 31.4946 10.1248 31.3712C10.1248 29.6785 10.1248 27.9857 10.1248 26.2936ZM24.7044 25.0251V24.8541C24.7044 24.271 24.6997 23.6879 24.7078 23.1048C24.7098 22.9714 24.6593 22.9243 24.5421 22.8873C21.3707 21.8833 18.2007 20.876 15.0307 19.8687C11.8438 18.856 8.65696 17.8434 5.47077 16.8307C5.34463 16.7907 5.28134 16.8352 5.28089 16.964C5.28089 17.5357 5.28493 18.108 5.27752 18.6796C5.27618 18.8062 5.30782 18.8655 5.43441 18.9039C5.90574 19.0446 6.3737 19.1981 6.84234 19.3476C8.7721 19.9623 10.7025 20.5757 12.6316 21.1925C13.2046 21.3756 13.4874 21.7682 13.4901 22.3708C13.4915 22.7075 13.4854 23.0435 13.4921 23.3801C13.5042 23.97 13.7985 24.3787 14.3351 24.5982C15.0152 24.8763 15.6044 24.2945 15.5835 23.7936C15.5747 23.5869 15.5788 23.3788 15.5862 23.1714C15.5936 22.9674 15.6286 22.7715 15.7855 22.6179C16.0286 22.3802 16.3033 22.3473 16.6211 22.4489C19.0592 23.2313 21.4987 24.0077 23.9381 24.786C24.1866 24.8655 24.4364 24.9423 24.703 25.0258L24.7044 25.0251ZM38.3891 16.8468C38.3258 16.8718 38.2895 16.8839 38.2551 16.9C37.4417 17.2791 36.629 17.6595 35.8156 18.0386C32.3797 19.6425 28.9437 21.247 25.505 22.8455C25.3717 22.9075 25.3272 22.9755 25.336 23.1182C25.3494 23.3471 25.3393 23.5774 25.3393 23.8077V24.9604C25.4087 24.9315 25.4605 24.912 25.5097 24.8884C28.545 23.4724 31.5804 22.0557 34.6158 20.6397C35.8278 20.0741 37.0404 19.5092 38.2524 18.9429C38.3137 18.914 38.3911 18.9045 38.3904 18.8015C38.3871 18.1578 38.3884 17.5141 38.3884 16.8468H38.3891Z" fill="#101840" fill-opacity="0.87"/>
<path d="M48.2198 35.2341C48.1928 41.1674 43.4418 45.9238 37.5186 45.9137C31.6061 45.9029 26.8463 41.1903 26.8503 35.2267C26.8537 29.267 31.5926 24.5537 37.5266 24.5483C43.4997 24.543 48.1982 29.335 48.2198 35.2347V35.2341ZM43.1105 33.305C43.0506 33.2599 42.9806 33.2787 42.9153 33.2787C41.8339 33.2774 40.7519 33.2787 39.6705 33.2774C39.6039 33.2774 39.5372 33.27 39.4699 33.2666C39.4692 32.1455 39.4692 31.0251 39.4658 29.904C39.4658 29.7323 39.4665 29.5572 39.4362 29.3896C39.3318 28.8199 39.0389 28.3708 38.5447 28.0584C38.1528 27.8106 37.732 27.7426 37.2708 27.7884C36.7085 27.8443 36.2998 28.1264 35.9652 28.5526C35.6858 28.9081 35.5975 29.3175 35.6002 29.7633C35.6063 30.9342 35.5996 32.1058 35.5976 33.2774C34.4515 33.2774 33.3049 33.278 32.1589 33.2801C32.0936 33.2801 32.0242 33.2612 31.9643 33.3063C31.4909 33.3326 31.0721 33.4861 30.7307 33.8261C30.1631 34.3924 29.9732 35.0725 30.2076 35.83C30.4318 36.5572 31.1415 37.1429 31.932 37.1544C31.9979 37.1995 32.0727 37.1807 32.1441 37.1807C33.2954 37.1827 34.4468 37.1827 35.5982 37.1833C35.5996 37.2507 35.6029 37.3173 35.6029 37.3847C35.6043 38.5495 35.6056 39.7144 35.607 40.8792C35.6077 41.4866 35.8992 41.9586 36.3557 42.3134C37.1644 42.9423 38.3185 42.8009 38.981 42.0481C39.3332 41.6475 39.4678 41.1769 39.4678 40.6564C39.4678 39.5528 39.4678 38.4499 39.4692 37.3463C39.4692 37.287 39.4476 37.2231 39.4928 37.1685C39.5257 37.1726 39.5587 37.1807 39.5917 37.1807C40.727 37.1813 41.8622 37.1813 42.9974 37.1807C43.0473 37.1807 43.0991 37.1867 43.1422 37.153C43.6485 37.1201 44.0653 36.9053 44.4094 36.5363C44.9272 35.9801 45.0659 35.325 44.8282 34.624C44.5569 33.8214 43.9576 33.3891 43.1112 33.3063L43.1105 33.305Z" fill="#0E19B7"/>
<path d="M18.3355 20.2592C16.331 19.6216 14.3446 18.9893 12.3577 18.3571C11.8628 18.1995 11.3685 18.0386 10.8716 17.8858C10.7875 17.8602 10.7572 17.8279 10.7578 17.7383C10.772 15.9075 10.9187 14.0909 11.3443 12.3052C11.6156 11.1666 12.0176 10.0772 12.6438 9.08132C13.4377 7.8195 14.5338 6.92734 15.9418 6.42504C17.1208 6.00488 18.3449 5.9059 19.5831 5.9362C19.9063 5.94428 20.212 6.08434 20.5244 6.1685C22.1202 6.60145 23.714 7.04046 25.3084 7.47745C25.3462 7.48755 25.3825 7.50236 25.4391 7.52189C25.1623 7.60875 24.9004 7.68484 24.6425 7.77372C22.8845 8.37836 21.5674 9.52706 20.5803 11.0784C19.6128 12.5988 19.0714 14.2767 18.7415 16.0355C18.4802 17.4272 18.3732 18.8318 18.3348 20.2586L18.3355 20.2592Z" fill="white"/>
<path d="M32.7002 9.53744C32.5238 9.58457 32.346 9.62834 32.1716 9.68018C30.225 10.2586 28.7161 11.4308 27.5539 13.0771C26.7756 14.18 26.212 15.388 25.7831 16.6626C25.3589 17.9224 25.0734 19.2145 24.8977 20.5322C24.8249 21.0763 24.7603 21.621 24.7334 22.1697C24.7266 22.3031 24.6734 22.2748 24.5866 22.2465C22.7524 21.6607 20.9183 21.0769 19.0821 20.4972C18.9885 20.4676 18.9616 20.4272 18.9629 20.3336C18.9905 18.5075 19.171 16.6996 19.6282 14.9281C19.9642 13.6259 20.4523 12.3816 21.2071 11.2585C22.3457 9.56302 23.8957 8.46887 25.9191 8.07564C26.1776 8.02514 26.4369 7.98474 26.6981 7.95242C26.8429 7.93424 26.985 7.93626 27.1297 7.97599C28.9868 8.48772 30.8452 8.99608 32.7029 9.50512C32.7022 9.51589 32.7015 9.52599 32.7002 9.53676V9.53744Z" fill="white"/>
<path d="M25.3616 22.2162C25.371 21.7455 25.4289 21.3065 25.4821 20.8681C25.6323 19.6387 25.8794 18.4287 26.249 17.2463C26.7197 15.7401 27.3654 14.3187 28.3417 13.0649C29.5429 11.5217 31.0849 10.5124 33.0099 10.1178C33.7425 9.96764 34.4798 9.95013 35.2023 10.175C35.8904 10.3891 36.4493 10.7972 36.893 11.3641C37.5508 12.2038 37.8956 13.1794 38.1245 14.2049C38.2551 14.7907 38.3359 15.3832 38.3777 15.9818C38.3858 16.0949 38.3608 16.1616 38.2464 16.2141C33.9936 18.1923 29.7429 20.1753 25.4915 22.1569C25.4572 22.1731 25.4222 22.1885 25.3616 22.2162Z" fill="white"/>
<path d="M18.336 29.0919C18.336 30.8466 18.336 32.6006 18.336 34.3553C18.336 34.4797 18.277 34.5205 18.1589 34.4779C15.7504 33.6025 13.3426 32.7259 10.9328 31.8553C10.7941 31.8048 10.751 31.7415 10.751 31.5933C10.7557 28.2132 10.755 24.8331 10.755 21.453C10.755 21.3134 10.8194 21.264 10.9483 21.3049C11.4391 21.4611 11.9293 21.6166 12.4195 21.7728C12.7508 21.8786 12.8524 22.0253 12.8585 22.3782C12.8659 22.8091 12.8289 23.2414 12.8854 23.6716C12.9965 24.52 13.7904 25.2795 14.6253 25.2923C15.5505 25.3065 16.1894 24.6049 16.2204 23.7861C16.2285 23.5787 16.2245 23.3713 16.2211 23.1639C16.2191 23.032 16.2689 22.9949 16.3968 23.0367C17.0075 23.2346 17.6189 23.4313 18.233 23.6191C18.3495 23.6548 18.336 23.7282 18.336 23.811C18.336 25.4142 18.336 27.0174 18.336 28.6206C18.336 28.7775 18.336 28.9344 18.336 29.0913V29.0919Z" fill="#FEFEFE"/>
<path d="M18.9529 23.854C19.7548 24.1085 20.5358 24.3556 21.3169 24.6048C22.3969 24.9488 23.4756 25.2969 24.5563 25.6377C24.6701 25.6733 24.7085 25.7211 24.7078 25.8437C24.7037 29.3585 24.7037 32.8732 24.7078 36.388C24.7078 36.5139 24.6782 36.5496 24.5522 36.5429C24.0062 36.5139 23.4756 36.4082 22.9625 36.2224C21.6522 35.7483 20.3439 35.2696 19.0343 34.7956C18.9522 34.766 18.8983 34.7458 18.9394 34.6374C18.9643 34.5727 18.9522 34.4933 18.9522 34.4205C18.9522 30.9731 18.9522 27.5257 18.9522 24.0782C18.9522 24.0109 18.9522 23.9442 18.9522 23.854H18.9529Z" fill="white"/>
<path d="M17.5901 5.37827C17.1632 5.46513 16.739 5.5392 16.3242 5.65232C14.9493 6.02669 13.773 6.7182 12.8276 7.79821C11.7893 8.98327 11.2056 10.3892 10.811 11.8867C10.4992 13.069 10.3248 14.2756 10.2286 15.4944C10.1754 16.171 10.1377 16.8477 10.1336 17.5265C10.1336 17.6295 10.1161 17.6436 10.0111 17.61C8.47454 17.1191 6.93598 16.6343 5.39878 16.1475C5.33077 16.1259 5.27758 16.1044 5.2796 16.0041C5.29643 15.1806 5.25064 14.3558 5.32269 13.5329C5.43783 12.2206 5.81893 10.9871 6.45321 9.83503C7.24504 8.3968 8.34324 7.24137 9.72962 6.36402C10.5733 5.83008 11.4884 5.45705 12.4573 5.21735C13.6733 4.91637 14.8994 4.84769 16.1404 5.03555C16.6339 5.11029 17.112 5.24226 17.5907 5.37895L17.5901 5.37827Z" fill="white"/>
<path d="M38.3892 19.5666C38.3892 20.0218 38.3892 20.4473 38.3892 20.8722C38.3892 21.8478 38.3865 22.8235 38.3926 23.7991C38.3932 23.9298 38.3576 23.956 38.2316 23.9479C36.0076 23.8025 33.921 24.292 31.9825 25.3714C30.2601 26.3308 28.8885 27.6708 27.8604 29.3588C27.115 30.5829 26.6342 31.9053 26.3831 33.3126C26.2114 34.2721 26.1804 35.239 26.2619 36.2092C26.2693 36.2974 26.2424 36.3237 26.1656 36.3479C25.9407 36.4193 25.7077 36.4523 25.4788 36.5028C25.3744 36.5257 25.3367 36.4941 25.3374 36.3769C25.3421 35.379 25.3401 34.3812 25.3401 33.3826C25.3401 30.8597 25.3408 28.3367 25.3381 25.8137C25.3381 25.7006 25.365 25.6407 25.4754 25.5888C29.7066 23.618 33.9358 21.6431 38.1657 19.6689C38.231 19.6386 38.2963 19.609 38.3899 19.5659L38.3892 19.5666Z" fill="white"/>
<path d="M10.1262 26.2935C10.1262 27.9863 10.1262 29.679 10.1262 31.3711C10.1262 31.4945 10.0665 31.5347 9.94711 31.4916C8.75397 31.0573 7.56016 30.6237 6.36703 30.1894C5.64252 29.9255 5.28297 29.4184 5.28297 28.6475C5.28162 25.6545 5.28297 22.6616 5.28027 19.6687C5.28027 19.5434 5.29239 19.5057 5.43043 19.5502C6.94878 20.037 8.46848 20.5197 9.98953 20.9978C10.1047 21.0342 10.1296 21.088 10.1289 21.1991C10.1255 22.8973 10.1262 24.5954 10.1262 26.2935Z" fill="white"/>
<path d="M24.7051 25.0259C24.4385 24.9424 24.1894 24.8657 23.9402 24.7862C21.5008 24.0078 19.0613 23.2315 16.6232 22.4491C16.3054 22.3474 16.0307 22.3797 15.7876 22.6181C15.6314 22.7716 15.5957 22.9682 15.5883 23.1716C15.5809 23.379 15.5768 23.587 15.5856 23.7937C15.6065 24.294 15.0173 24.8758 14.3372 24.5983C13.7999 24.3788 13.5064 23.9701 13.4942 23.3803C13.4875 23.0443 13.4936 22.7076 13.4922 22.371C13.4895 21.7684 13.2067 21.3758 12.6337 21.1927C10.7046 20.5766 8.7742 19.9625 6.84444 19.3477C6.37581 19.1983 5.90784 19.0447 5.43651 18.904C5.30993 18.8663 5.27761 18.8064 5.27963 18.6798C5.28704 18.1081 5.28299 17.5358 5.28299 16.9642C5.28299 16.8358 5.34629 16.7913 5.47287 16.8308C8.65974 17.8435 11.8459 18.8562 15.0328 19.8689C18.2028 20.8762 21.3728 21.8828 24.5442 22.8874C24.6614 22.9245 24.7119 22.9716 24.7099 23.1049C24.7011 23.688 24.7065 24.2711 24.7065 24.8542V25.0252L24.7051 25.0259Z" fill="#939DE9"/>
<path d="M38.3898 16.8477C38.3898 17.5149 38.3878 18.1586 38.3918 18.8023C38.3918 18.906 38.3151 18.9154 38.2538 18.9437C37.0418 19.51 35.8292 20.0749 34.6172 20.6405C31.5818 22.0565 28.5464 23.4732 25.5111 24.8892C25.4612 24.9121 25.4101 24.9316 25.3407 24.9613V23.8085C25.3407 23.5789 25.3508 23.348 25.3374 23.119C25.3293 22.9763 25.373 22.9083 25.5064 22.8463C28.945 21.2472 32.381 19.6426 35.817 18.0394C36.6304 17.6597 37.4431 17.2799 38.2565 16.9008C38.2908 16.8847 38.3279 16.8726 38.3905 16.8477H38.3898Z" fill="#939DE9"/>
<path d="M35.5975 33.2752C35.5995 32.1036 35.6063 30.9327 35.6002 29.7611C35.5982 29.316 35.6864 28.906 35.9652 28.5504C36.2998 28.1242 36.7085 27.8421 37.2707 27.7862C37.732 27.7404 38.1535 27.8091 38.5447 28.0562C39.0389 28.3686 39.3318 28.8178 39.4362 29.3874C39.4671 29.555 39.4658 29.7301 39.4658 29.9018C39.4692 31.0229 39.4692 32.1433 39.4698 33.2644C39.4813 33.3216 39.5277 33.3088 39.5634 33.3082C40.7458 33.3068 41.9282 33.3048 43.1098 33.3028C43.9562 33.3856 44.5555 33.8179 44.8268 34.6205C45.0638 35.3221 44.9258 35.9772 44.408 36.5327C44.0639 36.9017 43.6478 37.1165 43.1408 37.1495C41.945 37.1482 40.7492 37.1461 39.554 37.1455C39.5331 37.1455 39.5122 37.1576 39.4914 37.1643C39.4463 37.2182 39.4678 37.2828 39.4678 37.3421C39.4665 38.4457 39.4671 39.5486 39.4665 40.6522C39.4665 41.1726 39.3318 41.6433 38.9796 42.0439C38.3171 42.7974 37.163 42.9381 36.3543 42.3092C35.8978 41.9544 35.6063 41.4824 35.6056 40.875C35.6043 39.7102 35.6029 38.5453 35.6016 37.3805C35.6016 37.3131 35.5982 37.2465 35.5968 37.1791C35.5827 37.1354 35.5443 37.1441 35.5134 37.1448C34.3189 37.1461 33.1251 37.1482 31.9306 37.1502C31.1401 37.1387 30.4304 36.5529 30.2062 35.8257C29.9725 35.0683 30.1617 34.3882 30.7294 33.8219C31.0707 33.4812 31.4895 33.3284 31.9629 33.3021C33.1466 33.3041 34.3296 33.3062 35.5134 33.3082C35.5443 33.3082 35.582 33.3176 35.5968 33.2738L35.5975 33.2752ZM38.8416 36.7778C38.9036 36.5785 39.0564 36.5388 39.2416 36.5395C40.4899 36.5415 41.7383 36.5428 42.9866 36.5395C43.3671 36.5381 43.701 36.3927 43.9542 36.1153C44.2909 35.747 44.377 35.3032 44.2431 34.8238C44.1151 34.3653 43.5987 33.9364 43.1415 33.9499C43.0607 33.8913 42.9684 33.9189 42.8816 33.9189C41.6326 33.9189 40.3835 33.9216 39.1338 33.9236C38.9978 33.8913 38.8726 33.8475 38.8618 33.6778C38.8632 32.3797 38.8645 31.0815 38.8652 29.7833C38.8652 29.7442 38.8685 29.7045 38.8362 29.6736C38.7891 29.5288 38.7837 29.3759 38.7366 29.2278C38.6073 28.8218 38.1151 28.4286 37.6889 28.3969C37.1475 28.3565 36.7146 28.5376 36.4116 28.9908C36.2756 29.1941 36.1995 29.4231 36.2365 29.6762C36.2089 29.6937 36.2076 29.722 36.2076 29.7503C36.2096 31.0505 36.2109 32.3507 36.2129 33.6516C36.1799 33.8011 36.0816 33.8845 35.9382 33.9229C34.638 33.9216 33.3372 33.9196 32.037 33.9196C31.9999 33.9196 31.9568 33.9081 31.9306 33.9499C31.8693 33.9525 31.8053 33.9451 31.7474 33.9606C31.1165 34.129 30.7193 34.6595 30.7529 35.3194C30.7859 35.9692 31.3441 36.5395 32.0289 36.5415C33.29 36.5449 34.5505 36.5428 35.8116 36.5435C36.05 36.5435 36.1274 36.5967 36.2123 36.8108C36.2109 38.105 36.2089 39.3991 36.2076 40.6939C36.2076 40.7269 36.2028 40.7619 36.2365 40.7848C36.1995 40.8919 36.2237 41.007 36.2533 41.1006C36.4331 41.6743 36.9475 42.1847 37.7145 42.0621C38.1185 41.9975 38.4181 41.782 38.6423 41.4393C38.7743 41.2373 38.7864 41.0097 38.8362 40.7889C38.8807 40.7417 38.8645 40.6831 38.8645 40.6293C38.8652 39.3883 38.8652 38.1474 38.8645 36.9071C38.8645 36.8647 38.8813 36.8169 38.8403 36.7812L38.8416 36.7778Z" fill="#101840" fill-opacity="0.87"/>
<path d="M31.9312 37.1522C33.1256 37.1502 34.3194 37.1482 35.5139 37.1469C35.5449 37.1469 35.5833 37.1374 35.5974 37.1812C34.446 37.1812 33.2946 37.1805 32.1433 37.1785C32.0726 37.1785 31.9971 37.1967 31.9312 37.1522Z" fill="#0E19B7"/>
<path d="M35.5976 33.2753C35.5834 33.3191 35.5457 33.3097 35.5141 33.3097C34.3304 33.3083 33.1473 33.3056 31.9636 33.3036C32.0235 33.2585 32.0929 33.2773 32.1582 33.2773C33.3042 33.2753 34.4509 33.2753 35.5969 33.2747L35.5976 33.2753Z" fill="#0E19B7"/>
<path d="M43.1105 33.3045C41.9281 33.3065 40.7457 33.3085 39.5641 33.3099C39.5284 33.3099 39.4819 33.3227 39.4705 33.2661C39.5371 33.2702 39.6038 33.2769 39.6711 33.2769C40.7525 33.2776 41.8345 33.2769 42.9159 33.2782C42.9812 33.2782 43.0512 33.2594 43.1111 33.3045H43.1105Z" fill="#0E19B7"/>
<path d="M39.4914 37.1668C39.5123 37.1601 39.5331 37.1479 39.554 37.1479C40.7498 37.1479 41.9457 37.15 43.1408 37.152C43.0971 37.1857 43.0452 37.1796 42.9954 37.1796C41.8602 37.1796 40.7249 37.1796 39.5897 37.1796C39.5567 37.1796 39.5237 37.1715 39.4907 37.1675L39.4914 37.1668Z" fill="#0E19B7"/>
<path d="M38.8368 40.7859C38.7869 41.0068 38.7748 41.2343 38.6428 41.4363C38.4186 41.7791 38.119 41.9945 37.715 42.0592C36.9481 42.1817 36.4336 41.6713 36.2539 41.0977C36.2242 41.0041 36.2 40.8889 36.237 40.7819C36.2384 39.4938 36.2397 38.2064 36.2411 36.9183C36.2411 36.8793 36.2451 36.8389 36.2128 36.8086C36.128 36.5944 36.0505 36.5412 35.8122 36.5412C34.551 36.5412 33.2906 36.5426 32.0294 36.5392C31.344 36.5372 30.7864 35.9676 30.7534 35.3171C30.7198 34.6573 31.117 34.1267 31.748 33.9584C31.8059 33.9429 31.8698 33.951 31.9311 33.9476C33.2252 33.9476 34.5187 33.9489 35.8128 33.9489C35.8566 33.9489 35.9037 33.9584 35.9394 33.9207C36.0828 33.8829 36.1811 33.7995 36.2141 33.6493C36.2465 33.6183 36.2417 33.5779 36.2417 33.5389C36.2404 32.2508 36.2391 30.9627 36.2377 29.674C36.2 29.4215 36.2768 29.1919 36.4128 28.9885C36.7158 28.5354 37.1487 28.3542 37.6901 28.3946C38.1163 28.4263 38.6085 28.8195 38.7378 29.2255C38.7849 29.3737 38.7896 29.5258 38.8374 29.6713C38.8361 30.9695 38.8347 32.267 38.8334 33.5651C38.8334 33.6042 38.8334 33.6439 38.863 33.6756C38.8745 33.8452 38.9997 33.8897 39.135 33.9213C39.1707 33.9597 39.2179 33.9483 39.2616 33.9483C40.5551 33.9483 41.8485 33.9483 43.142 33.9483C43.5992 33.9355 44.1156 34.3637 44.2436 34.8222C44.3776 35.3023 44.2914 35.746 43.9547 36.1137C43.7015 36.3911 43.3676 36.5365 42.9871 36.5379C41.7388 36.5419 40.4904 36.5406 39.2421 36.5379C39.0569 36.5379 38.9041 36.5769 38.8421 36.7762C38.8408 38.1121 38.8394 39.448 38.8381 40.7839L38.8368 40.7859Z" fill="white"/>
<path d="M38.8624 33.6766C38.8328 33.645 38.8328 33.6059 38.8328 33.5662C38.8341 32.268 38.8355 30.9705 38.8368 29.6724C38.8691 29.7027 38.8658 29.7431 38.8658 29.7821C38.8644 31.0803 38.8637 32.3785 38.8624 33.6766Z" fill="#0E19B7"/>
<path d="M35.9395 33.9213C35.9038 33.959 35.8567 33.9496 35.8129 33.9496C34.5188 33.9496 33.2253 33.9489 31.9312 33.9482C31.9574 33.9065 32.0012 33.9179 32.0375 33.9179C33.3377 33.9179 34.6386 33.92 35.9388 33.9213H35.9395Z" fill="#0E19B7"/>
<path d="M43.1415 33.9495C41.848 33.9495 40.5546 33.9502 39.2611 33.9495C39.2173 33.9495 39.1702 33.9603 39.1345 33.9226C40.3835 33.9206 41.6326 33.9179 42.8823 33.9179C42.9691 33.9179 43.0614 33.8909 43.1422 33.9488L43.1415 33.9495Z" fill="#0E19B7"/>
<path d="M38.8369 40.786C38.8383 39.4501 38.8396 38.1142 38.841 36.7783C38.882 36.814 38.8652 36.8618 38.8652 36.9042C38.8659 38.1452 38.8659 39.3861 38.8652 40.6264C38.8652 40.6803 38.8814 40.7395 38.8369 40.786Z" fill="#0E19B7"/>
<path d="M36.2372 29.6753C36.2386 30.9634 36.2399 32.2514 36.2412 33.5402C36.2412 33.5786 36.2466 33.6196 36.2136 33.6506C36.2116 32.3504 36.2096 31.0502 36.2083 29.7494C36.2083 29.7211 36.2096 29.6935 36.2372 29.6753Z" fill="#0E19B7"/>
<path d="M36.2137 36.8083C36.246 36.8393 36.242 36.8797 36.242 36.918C36.2406 38.2061 36.2393 39.4935 36.2379 40.7816C36.2043 40.7594 36.209 40.7237 36.209 40.6907C36.2103 39.3966 36.2123 38.1024 36.2137 36.8076V36.8083Z" fill="#0E19B7"/>
</svg>
