<svg width="45" height="50" viewBox="0 0 45 50" fill="none" xmlns="http://www.w3.org/2000/svg">
<path d="M13.4342 7.55409C13.7145 7.44905 13.9956 7.34544 14.2752 7.23898C15.31 6.84438 16.3696 6.53565 17.4533 6.30287C17.9239 6.20138 18.3979 6.12331 18.8706 6.03672C19.2212 5.97214 19.5817 5.9622 19.9366 5.91749C20.9281 5.79258 21.9238 5.79755 22.9188 5.81884C23.4632 5.83091 24.0068 5.89123 24.5504 5.94801C25.4099 6.03743 26.2566 6.19357 27.0976 6.38164C28.2601 6.64211 29.3864 7.01826 30.4922 7.46041C30.5575 7.48667 30.6199 7.52215 30.6831 7.55338C30.4886 7.80462 30.2842 8.04876 30.1692 8.3511C30.0734 8.60376 30.0358 8.85216 30.2125 9.08778C30.3992 9.33618 30.6746 9.40644 30.9584 9.42418C31.8215 9.4767 32.6483 9.34186 33.407 8.89971C33.7412 9.11901 34.0783 9.33405 34.4098 9.55832C35.1351 10.0509 35.8349 10.5768 36.4978 11.1516C36.9875 11.5767 37.4729 12.0061 37.92 12.476C38.744 13.3418 39.5105 14.2545 40.1989 15.2346C40.9335 16.28 41.5608 17.3857 42.1059 18.5376C42.6481 19.6838 43.0782 20.8719 43.4125 22.0968C43.6453 22.9478 43.8234 23.8087 43.9604 24.6773C44.0399 25.1798 44.0761 25.6908 44.125 26.199C44.2031 27.018 44.191 27.8363 44.1818 28.6546C44.1754 29.2174 44.1108 29.778 44.0534 30.3394C43.9874 30.9824 43.8873 31.6183 43.7588 32.2507C43.5083 33.4856 43.1605 34.6935 42.7049 35.8695C42.3997 36.6566 42.0506 37.4231 41.6574 38.1697C41.1854 39.0668 40.6687 39.9376 40.0655 40.7538C40.0328 40.6984 39.9981 40.6438 39.9683 40.587C38.7241 38.208 37.48 35.8284 36.2359 33.4494C36.1365 33.2592 36.0265 33.0754 35.815 32.9909C35.7291 32.9561 35.7469 32.8916 35.7469 32.8305C35.7462 32.4224 35.7476 32.0151 35.7462 31.607C35.7448 31.3692 35.7185 31.1336 35.6333 30.9115C35.3409 30.1528 34.6915 29.7135 33.8633 29.7128C30.2111 29.712 26.5582 29.7128 22.906 29.7128C22.8649 29.7128 22.823 29.7085 22.7818 29.7135C22.6882 29.7255 22.6619 29.6879 22.6626 29.5949C22.6669 29.14 22.6662 28.6851 22.6626 28.2302C22.6626 28.1493 22.6804 28.1166 22.7691 28.1159C23.4185 28.1124 23.9742 27.871 24.4433 27.4303C24.9032 26.9974 25.1849 26.4722 25.2509 25.8363C25.3013 25.3473 25.2729 24.8576 25.2793 24.3679C25.2829 24.1209 25.2793 24.1209 25.5228 24.111C26.0288 24.0904 26.5958 23.6135 26.7392 23.1273C26.9429 22.4354 26.676 21.7299 26.0274 21.3687C25.9592 21.331 25.9557 21.2892 25.9635 21.2281C26.0742 20.3616 26.3112 19.5333 26.698 18.747C27.011 18.1104 27.4525 17.5653 27.8783 17.0068C29.0642 15.4532 29.456 13.7009 29.0983 11.7932C28.8754 10.6044 28.3318 9.55832 27.5099 8.65982C26.9734 8.0736 26.3581 7.591 25.6484 7.23827C24.4213 6.62862 23.1268 6.40152 21.7627 6.59314C20.7755 6.73224 19.8663 7.07716 19.0409 7.62932C17.9586 8.35323 17.1616 9.32057 16.6506 10.5221C16.146 11.7066 16.0098 12.9366 16.2255 14.1991C16.4143 15.302 16.882 16.2864 17.5853 17.1579C17.7784 17.3964 17.9714 17.6363 18.1453 17.8889C18.8373 18.8946 19.2496 20.006 19.3866 21.2203C19.3972 21.3154 19.3674 21.3488 19.2908 21.3942C18.8543 21.6518 18.6031 22.0315 18.5512 22.5418C18.4718 23.3324 19.1289 24.1074 19.9103 24.1124C20.048 24.1131 20.0793 24.1706 20.0807 24.3026C20.0864 24.8037 20.0643 25.304 20.102 25.8065C20.18 26.8562 21.0147 27.7738 21.9579 28.0243C22.0863 28.0584 22.1211 28.1159 22.119 28.2429C22.1112 28.6624 22.1048 29.0825 22.1211 29.5013C22.1282 29.6872 22.0686 29.717 21.8975 29.717C18.0736 29.712 14.2497 29.7241 10.4264 29.7064C9.34981 29.7014 8.50241 30.5523 8.5159 31.6013C8.52015 31.9498 8.51022 32.299 8.51945 32.6474C8.52299 32.7858 8.49886 32.839 8.34202 32.8412C8.12556 32.844 7.90554 32.8738 7.69334 32.92C6.41018 33.1967 5.30799 33.7922 4.43718 34.7908C3.83676 35.4792 3.42654 36.2655 3.18524 37.1449C3.0142 37.7673 2.98723 38.4011 3.0071 39.0398C2.1888 37.614 1.51032 36.1264 1.02062 34.5551C0.684922 33.4771 0.420909 32.382 0.251288 31.2656C0.167542 30.7149 0.119281 30.1599 0.0639234 29.6049C-0.019113 28.7745 -0.00420905 27.9442 0.00643665 27.1138C0.0135338 26.5687 0.0795371 26.0258 0.132056 25.4822C0.227867 24.4985 0.414522 23.5312 0.645888 22.5738C0.821187 21.8477 1.03836 21.1309 1.29457 20.4283C1.6402 19.4801 2.04899 18.5596 2.51456 17.664C3.12775 16.4851 3.84244 15.373 4.66074 14.3262C5.09579 13.7698 5.56633 13.2439 6.04184 12.7208C6.42011 12.3042 6.82891 11.9231 7.23983 11.5441C7.84451 10.9863 8.4868 10.4696 9.1589 9.99267C9.6195 9.66549 10.0815 9.33973 10.5691 9.05159C10.611 9.02675 10.6699 9.00616 10.672 8.94016C10.7983 9.06294 10.914 9.19424 11.0737 9.28011C11.5783 9.55122 12.1276 9.63923 12.689 9.674C13.0495 9.69601 13.4087 9.6811 13.7578 9.57181C14.1248 9.45683 14.3327 9.17437 14.2866 8.83867C14.2639 8.66905 14.1957 8.5122 14.1091 8.36316C13.9296 8.05444 13.6691 7.81598 13.4314 7.55693L13.4342 7.55409ZM14.9856 18.4553C14.8806 18.4674 14.7734 18.4709 14.6705 18.4922C13.9949 18.6348 13.3718 18.8953 12.8224 19.3218C12.3994 19.6504 12.1674 20.0656 12.2192 20.6135C12.2689 21.1401 12.5449 21.5255 13.0133 21.7405C13.5059 21.9669 14.0084 21.9371 14.4392 21.5816C15.1155 21.023 15.5236 20.2856 15.7351 19.4468C15.8891 18.8392 15.5726 18.4489 14.9849 18.4546L14.9856 18.4553ZM29.7647 18.28C29.0373 18.2821 28.7285 18.6668 28.9109 19.3062C29.1146 20.0195 29.5092 20.627 30.0379 21.1465C30.1934 21.2991 30.363 21.4389 30.5709 21.517C31.5553 21.8867 32.6263 21.1479 32.4496 19.9641C32.385 19.5319 32.1238 19.2338 31.7689 19.0011C31.1387 18.5866 30.4503 18.3417 29.7647 18.28ZM11.2824 13.1431C11.0808 13.1339 10.8807 13.1417 10.6827 13.1715C9.90977 13.2879 9.4073 13.9543 9.50169 14.7406C9.58756 15.4567 10.2731 16.0309 11.0127 15.9244C11.8707 15.801 12.6159 15.4234 13.2277 14.8173C13.6961 14.3524 13.6202 13.9003 13.0446 13.571C12.5016 13.2602 11.8934 13.1878 11.2824 13.1431ZM33.6014 12.8223C32.9698 12.828 32.5163 12.9238 32.0713 13.0679C31.7682 13.1658 31.4772 13.285 31.2352 13.5029C30.9677 13.7428 30.9137 14.1047 31.1188 14.3936C31.1969 14.5029 31.2828 14.6093 31.3921 14.6931C31.9946 15.1565 32.666 15.4695 33.4176 15.5923C34.0322 15.6931 34.6348 15.3886 34.8988 14.8613C35.1777 14.302 35.0705 13.6718 34.6248 13.2211C34.2955 12.8883 33.8832 12.8131 33.6021 12.8223H33.6014Z" fill="#E5E7FA"/>
<path d="M36.743 44.4293C36.3867 44.7629 36.0106 45.073 35.6259 45.3725C34.9424 45.9041 34.2341 46.4002 33.4882 46.8388C32.6799 47.3136 31.8481 47.7436 30.99 48.1255C30.2136 48.4711 29.4202 48.7706 28.6097 49.0176C27.6941 49.2965 26.7658 49.5229 25.8198 49.6819C25.247 49.7784 24.6722 49.8614 24.0952 49.9139C23.4572 49.9729 22.8163 50.0126 22.1726 49.9963C21.6545 49.9828 21.135 50.002 20.6176 49.9565C19.8114 49.8856 19.0087 49.7954 18.211 49.6535C17.0044 49.4384 15.8249 49.1233 14.6709 48.716C13.5858 48.3327 12.5432 47.8515 11.5304 47.3043C10.9336 46.9821 10.3487 46.64 9.78737 46.2618C9.23166 45.8877 8.69015 45.4917 8.1749 45.0623C7.88179 44.8175 7.59009 44.5712 7.2984 44.3242C7.25866 44.2902 7.21466 44.2575 7.20117 44.2015C7.65184 44.2909 8.09967 44.3903 8.56311 44.4073C9.40199 44.4378 10.2104 44.3037 10.9847 43.985C12.2543 43.4634 13.221 42.5947 13.8853 41.3946C14.4686 40.3406 14.6915 39.2058 14.5694 38.0128C14.4608 36.9461 14.0804 35.9759 13.4246 35.1214C12.3579 33.7311 10.9428 32.9795 9.20185 32.8347C9.10107 32.8262 9.0734 32.8006 9.07481 32.702C9.08049 32.3535 9.09256 32.0036 9.0734 31.6566C9.03152 30.8979 9.61562 30.2521 10.4623 30.2549C14.2855 30.2684 18.1095 30.2613 21.9327 30.2577C22.0753 30.2577 22.1236 30.2897 22.1229 30.4415C22.1158 31.3571 22.1158 32.2733 22.1229 33.1896C22.1243 33.3407 22.0775 33.372 21.9348 33.3712C20.2209 33.3663 18.5069 33.3677 16.7937 33.3684C16.4722 33.3684 16.3863 33.4564 16.3863 33.78C16.3863 37.3371 16.3863 40.8949 16.3863 44.452C16.3863 44.7763 16.4679 44.858 16.7944 44.858C20.3578 44.858 23.9213 44.858 27.4848 44.858C27.8034 44.858 27.8758 44.7834 27.8758 44.4591C27.8758 40.9077 27.8758 37.3563 27.8758 33.8049C27.8758 33.4372 27.8084 33.3691 27.4443 33.3691C25.9135 33.3691 24.3833 33.3663 22.8525 33.3734C22.6892 33.3741 22.6616 33.3265 22.663 33.1768C22.6701 32.279 22.6715 31.3805 22.6623 30.482C22.6601 30.3074 22.697 30.257 22.8816 30.257C26.4628 30.2634 30.044 30.2613 33.6252 30.262C33.7785 30.262 33.9325 30.2684 34.0858 30.2776C34.6018 30.3103 35.1575 30.8546 35.1759 31.3699C35.1937 31.8659 35.1837 32.362 35.1859 32.8588C35.1859 32.9128 35.1859 32.9603 35.1227 32.9887C34.9126 33.0845 34.7941 33.2655 34.6912 33.4628C33.8183 35.137 32.9425 36.8098 32.0681 38.4833C31.2562 40.0362 30.445 41.5897 29.6317 43.1419C29.5039 43.3853 29.4315 43.628 29.5401 43.902C29.6955 44.2959 30.0057 44.4229 30.3974 44.4229C32.4478 44.4229 34.4989 44.4229 36.5492 44.4229C36.6138 44.4229 36.6791 44.4279 36.7437 44.43L36.743 44.4293Z" fill="#E5E7FA"/>
<path d="M36.7437 44.4297C36.6791 44.4269 36.6138 44.4226 36.5492 44.4226C34.4988 44.4226 32.4478 44.4226 30.3974 44.4226C30.0064 44.4226 29.6962 44.2963 29.5401 43.9017C29.4322 43.6277 29.5039 43.385 29.6316 43.1416C30.445 41.5894 31.2562 40.0359 32.0681 38.483C32.9424 36.8095 33.8182 35.1367 34.6912 33.4625C34.7941 33.2652 34.9119 33.0842 35.1227 32.9884C35.1858 32.9593 35.1858 32.9125 35.1858 32.8585C35.183 32.3625 35.1936 31.8657 35.1759 31.3696C35.1575 30.855 34.6017 30.31 34.0858 30.2773C33.9325 30.2674 33.7792 30.2617 33.6252 30.2617C30.044 30.261 26.4628 30.2624 22.8815 30.2567C22.6977 30.2567 22.6608 30.3071 22.6622 30.4817C22.6715 31.3795 22.67 32.278 22.663 33.1765C22.6615 33.3263 22.6892 33.3745 22.8524 33.3731C24.3833 33.366 25.9134 33.3688 27.4443 33.3688C27.8084 33.3688 27.8758 33.437 27.8758 33.8046C27.8758 37.356 27.8758 40.9074 27.8758 44.4588C27.8758 44.7831 27.8034 44.8577 27.4847 44.8577C23.9213 44.8577 20.3578 44.8577 16.7943 44.8577C16.4679 44.8577 16.3862 44.7768 16.3862 44.4517C16.3862 40.8946 16.3862 37.3368 16.3862 33.7798C16.3862 33.4561 16.4728 33.3681 16.7936 33.3681C18.5076 33.3681 20.2215 33.366 21.9348 33.371C22.0774 33.371 22.1236 33.3404 22.1229 33.1893C22.1158 32.2737 22.1158 31.3575 22.1229 30.4413C22.1243 30.2894 22.076 30.2575 21.9327 30.2575C18.1094 30.261 14.2855 30.2681 10.4623 30.2546C9.61558 30.2518 9.03149 30.8976 9.07336 31.6563C9.09253 32.0041 9.07975 32.3532 9.07478 32.7017C9.07336 32.8004 9.10175 32.8259 9.20182 32.8344C10.9427 32.9792 12.3579 33.7308 13.4246 35.1211C14.0804 35.9756 14.4608 36.9465 14.5694 38.0125C14.6915 39.2055 14.4686 40.3403 13.8852 41.3943C13.2209 42.5944 12.2536 43.4631 10.9846 43.9847C10.2103 44.3027 9.40196 44.4375 8.56308 44.407C8.09964 44.39 7.65181 44.2913 7.20114 44.2012C6.73415 44.0372 6.27213 43.8619 5.84559 43.6043C4.68308 42.9024 3.85768 41.9209 3.37082 40.6519C3.17068 40.1303 3.05925 39.5909 3.00957 39.0366C2.9897 38.3972 3.01596 37.7641 3.18771 37.1417C3.42972 36.2623 3.83994 35.476 4.43965 34.7875C5.31046 33.789 6.41265 33.1935 7.69581 32.9167C7.90801 32.8706 8.12803 32.8408 8.34449 32.838C8.50133 32.8358 8.52546 32.7826 8.52192 32.6442C8.51269 32.2957 8.52192 31.9473 8.51837 31.5981C8.50559 30.5491 9.35228 29.6982 10.4289 29.7032C14.2529 29.7209 18.0768 29.7088 21.9 29.7138C22.071 29.7138 22.1307 29.6847 22.1236 29.4981C22.1072 29.0793 22.1136 28.6592 22.1214 28.2397C22.1236 28.1127 22.0888 28.0552 21.9603 28.0211C21.0171 27.7706 20.1825 26.8522 20.1044 25.8033C20.0668 25.3015 20.0888 24.8005 20.0831 24.2994C20.0817 24.1667 20.0505 24.1099 19.9128 24.1092C19.1314 24.1042 18.4742 23.3292 18.5537 22.5386C18.6048 22.029 18.8568 21.6486 19.2932 21.391C19.3706 21.3456 19.3997 21.3122 19.389 21.2171C19.2528 20.0028 18.8404 18.8914 18.1478 17.8857C17.9739 17.6331 17.7808 17.3932 17.5878 17.1547C16.8838 16.2832 16.4161 15.2988 16.228 14.1959C16.0122 12.9334 16.1485 11.7034 16.6531 10.5189C17.1648 9.31737 17.9611 8.35003 19.0434 7.62612C19.8681 7.07396 20.778 6.72904 21.7652 6.58994C23.1292 6.39761 24.4237 6.62542 25.6508 7.23507C26.3606 7.58779 26.9759 8.0704 27.5124 8.65662C28.3343 9.55441 28.8779 10.6012 29.1008 11.79C29.4585 13.697 29.0667 15.4493 27.8808 17.0036C27.4542 17.5621 27.0135 18.1079 26.7005 18.7438C26.3137 19.5301 26.0767 20.3584 25.966 21.2249C25.9581 21.2867 25.9617 21.3278 26.0298 21.3655C26.6778 21.7267 26.9454 22.4329 26.7417 23.1241C26.5983 23.6103 26.032 24.0865 25.5252 24.1078C25.2825 24.1177 25.2853 24.1177 25.2818 24.3647C25.2754 24.8544 25.3038 25.3441 25.2534 25.8331C25.1881 26.469 24.9064 26.9942 24.4457 27.4271C23.9766 27.8678 23.4209 28.1091 22.7715 28.1127C22.6828 28.1127 22.6644 28.1461 22.6651 28.227C22.6679 28.6819 22.6693 29.1368 22.6651 29.5917C22.6644 29.6847 22.6906 29.7223 22.7843 29.7103C22.8248 29.7053 22.8666 29.7096 22.9085 29.7096C26.5607 29.7096 30.2136 29.7096 33.8658 29.7096C34.694 29.7096 35.3434 30.1489 35.6358 30.9083C35.7217 31.1304 35.7479 31.3667 35.7486 31.6038C35.7508 32.0119 35.7486 32.4192 35.7494 32.8273C35.7494 32.8891 35.7316 32.9536 35.8175 32.9877C36.029 33.0729 36.1383 33.256 36.2383 33.4462C37.4825 35.8252 38.7259 38.2048 39.9707 40.5838C40.0005 40.6406 40.0353 40.6952 40.068 40.7506C40.4413 41.4723 40.8153 42.1934 41.1886 42.9152C41.2262 42.9883 41.2596 43.0649 41.305 43.1331C41.6868 43.7136 41.3029 44.4439 40.5144 44.4262C39.3228 44.3999 38.1311 44.4191 36.9388 44.4198C36.8742 44.4198 36.8097 44.4247 36.7451 44.4269L36.7437 44.4297ZM22.67 21.2015C23.5267 21.2015 24.384 21.2001 25.2406 21.2029C25.3584 21.2029 25.4223 21.1973 25.4408 21.044C25.5195 20.3924 25.6743 19.7572 25.9156 19.1448C26.2548 18.2846 26.7544 17.5252 27.335 16.8105C28.4968 15.3819 28.8942 13.736 28.5656 11.9433C28.2839 10.4089 27.4833 9.15981 26.2151 8.23718C24.8269 7.22726 23.2698 6.87382 21.5863 7.179C20.2322 7.42456 19.0817 8.07395 18.1769 9.12148C17.0555 10.4188 16.5608 11.9327 16.7148 13.6388C16.822 14.8262 17.2656 15.89 18.0264 16.8141C18.5239 17.418 18.9675 18.0554 19.2861 18.7736C19.6112 19.506 19.8355 20.2668 19.9206 21.0652C19.9327 21.1823 19.9753 21.2043 20.0824 21.2036C20.9454 21.1994 21.8085 21.2015 22.6708 21.2015H22.67ZM16.949 39.1225C16.949 40.7882 16.9519 42.4546 16.9448 44.1203C16.9441 44.2892 16.9966 44.3176 17.1506 44.3176C20.477 44.3133 23.8027 44.3126 27.1292 44.3183C27.2952 44.3183 27.3293 44.2714 27.3286 44.1146C27.3243 40.7825 27.3243 37.4511 27.3286 34.119C27.3286 33.9721 27.3045 33.9217 27.1405 33.9224C23.8027 33.9281 20.4643 33.9281 17.1265 33.9224C16.976 33.9224 16.9448 33.9622 16.9455 34.1069C16.9512 35.779 16.949 37.4504 16.949 39.1225ZM8.65392 33.3688C5.66248 33.4675 3.47586 35.9494 3.55605 38.7463C3.64122 41.7371 6.14154 44.0174 9.09607 43.8513C11.952 43.6902 14.2266 41.2701 14.0328 38.2609C13.8504 35.4348 11.4615 33.2979 8.65463 33.3688H8.65392ZM35.4619 43.8641C37.134 43.8641 38.8054 43.8641 40.4775 43.8641C40.5364 43.8641 40.596 43.8669 40.6542 43.8605C40.838 43.8406 40.9331 43.6923 40.8721 43.5177C40.8529 43.4624 40.8217 43.4113 40.794 43.3588C39.5179 40.918 38.2419 38.4781 36.9665 36.0374C36.5485 35.2375 36.1312 34.4377 35.7117 33.6392C35.6166 33.4583 35.4307 33.3986 35.3115 33.515C35.2582 33.5668 35.2235 33.6392 35.188 33.7067C33.5017 36.9309 31.8161 40.1558 30.1313 43.3808C30.1043 43.4326 30.0759 43.4858 30.0582 43.5411C30.0127 43.6845 30.088 43.8201 30.2342 43.852C30.3023 43.8669 30.3754 43.8641 30.4457 43.8641C32.1178 43.8641 33.7891 43.8641 35.4612 43.8641H35.4619ZM22.6991 21.7679C22.6991 21.7679 22.6991 21.7679 22.6991 21.7686C21.7843 21.7686 20.8688 21.7643 19.954 21.7707C19.5232 21.7735 19.1442 22.1646 19.1137 22.5855C19.0746 23.1142 19.5083 23.5279 19.8944 23.5485C20.3777 23.5748 20.861 23.5507 21.3443 23.5535C22.6551 23.5613 23.9653 23.5613 25.2761 23.5627C25.7829 23.5627 26.1072 23.3122 26.2207 22.8374C26.3442 22.3221 25.9397 21.7764 25.4095 21.77C24.5061 21.7601 23.6026 21.7672 22.6999 21.7672L22.6991 21.7679ZM22.6821 24.1369C22.0505 24.1369 21.4188 24.1397 20.7879 24.1348C20.675 24.134 20.6346 24.1596 20.6388 24.2795C20.6481 24.545 20.6488 24.8111 20.6388 25.0758C20.6339 25.2015 20.6793 25.2249 20.79 25.2057C22.0498 24.9822 23.3095 24.7565 24.5714 24.5421C24.7949 24.5045 24.6871 24.3526 24.7055 24.2469C24.7296 24.1071 24.6175 24.1383 24.5416 24.1383C23.922 24.1369 23.3024 24.1376 22.6821 24.1376V24.1369ZM24.7076 25.4051C24.7076 25.3462 24.7012 25.2866 24.7091 25.2284C24.7247 25.1071 24.6785 25.0737 24.5614 25.1007C24.4245 25.1319 24.2846 25.1525 24.1462 25.1766C23.0355 25.3689 21.9256 25.5599 20.8156 25.7543C20.751 25.7657 20.6374 25.7593 20.6793 25.8806C20.7382 26.0503 20.6963 26.266 20.8929 26.3753C20.9057 26.3824 20.9277 26.3746 20.9447 26.3718C22.1001 26.1688 23.2563 25.9665 24.4117 25.7614C24.7083 25.7089 24.7076 25.7039 24.7076 25.4059V25.4051ZM21.1683 26.8863C21.7304 27.4732 22.3883 27.6656 23.137 27.5073C23.8056 27.3661 24.2584 26.9395 24.5721 26.2923C23.4216 26.4931 22.3095 26.6869 21.169 26.8856L21.1683 26.8863Z" fill="#262958"/>
<path d="M33.4081 8.89897C32.6494 9.34112 31.8226 9.47668 30.9596 9.42345C30.6757 9.40642 30.4004 9.33616 30.2137 9.08705C30.037 8.85142 30.0746 8.60302 30.1704 8.35036C30.2854 8.04803 30.4898 7.80389 30.6842 7.55265C31.0732 7.12469 31.4905 6.73009 32.0277 6.49376C32.5366 6.26949 33.0313 6.34401 33.4521 6.68467C33.8659 7.01894 34.0426 7.47458 33.9468 8.01751C33.8822 8.38372 33.6828 8.66264 33.4074 8.89826L33.4081 8.89897ZM31.2854 8.894C31.8766 8.86278 32.4578 8.78471 32.9908 8.49728C33.3712 8.29217 33.5281 7.7975 33.3386 7.39651C33.1526 7.00333 32.6551 6.82093 32.2591 6.99765C31.8482 7.18147 31.5153 7.46819 31.2165 7.79608C30.9979 8.03525 30.7893 8.28294 30.6693 8.59238C30.6161 8.73077 30.6452 8.80103 30.7935 8.83226C30.9554 8.86704 31.1179 8.89046 31.2854 8.89259V8.894Z" fill="#272958"/>
<path d="M17.8901 4.49897C17.8781 4.80272 17.8752 5.07383 17.6843 5.2981C17.5331 5.47553 17.3444 5.54153 17.1201 5.51598C16.7212 5.46985 16.394 5.26687 16.0718 5.04544C15.6559 4.76014 15.2848 4.43154 14.9902 4.01849C14.585 3.45001 14.6347 2.72184 15.1201 2.21014C15.5545 1.75238 16.3231 1.66508 16.8759 2.02632C17.1648 2.21511 17.338 2.50396 17.4778 2.8134C17.7248 3.36059 17.8539 3.93474 17.8901 4.49826V4.49897ZM17.338 4.47058C17.2869 3.89997 17.1492 3.28465 16.8071 2.7332C16.5566 2.33008 16.0108 2.23782 15.6134 2.51603C15.2386 2.77791 15.1606 3.30736 15.4331 3.68776C15.7979 4.19592 16.2727 4.56994 16.8241 4.8524C17.2407 5.06532 17.338 5.00215 17.338 4.47058Z" fill="#272958"/>
<path d="M13.4343 7.55446C13.672 7.81351 13.9332 8.05197 14.1121 8.36069C14.1986 8.50973 14.2668 8.66658 14.2895 8.8362C14.3349 9.17261 14.127 9.45436 13.7607 9.56934C13.4116 9.67934 13.0525 9.69354 12.6919 9.67153C12.1305 9.63747 11.5819 9.54946 11.0766 9.27764C10.9169 9.19177 10.8012 9.06047 10.6749 8.93769C10.3775 8.47993 10.2782 8.00087 10.5308 7.48988C10.89 6.761 11.6926 6.49131 12.4279 6.84475C12.8041 7.02572 13.1263 7.27909 13.4343 7.55446ZM13.0361 9.13215C13.1412 9.11796 13.3108 9.10163 13.4783 9.07112C13.7693 9.01718 13.8104 8.93343 13.6522 8.68077C13.315 8.1421 12.8594 7.72337 12.3073 7.40968C12.1383 7.31387 11.9623 7.22657 11.7601 7.23793C11.3633 7.25993 11.022 7.55304 10.9609 7.9157C10.8892 8.34366 11.0873 8.69213 11.4868 8.8653C11.9616 9.07112 12.4641 9.11086 13.0361 9.13215Z" fill="#252857"/>
<path d="M26.3818 4.34298C26.4124 3.66166 26.5351 3.00375 26.8566 2.39127C27.1909 1.75466 27.9404 1.46865 28.5976 1.73408C29.2626 2.00306 29.6323 2.74897 29.4251 3.42532C29.3385 3.70921 29.1632 3.94767 28.9702 4.1691C28.5756 4.62048 28.1291 5.0094 27.5862 5.27555C27.5074 5.31387 27.423 5.34226 27.3385 5.36497C26.8715 5.49059 26.5202 5.27129 26.4244 4.80004C26.3939 4.64958 26.3797 4.49841 26.3825 4.34369L26.3818 4.34298ZM28.137 2.19184C27.7892 2.19326 27.5245 2.31462 27.3719 2.59496C27.0539 3.18047 26.917 3.81496 26.9453 4.48067C26.9652 4.9363 27.0497 4.93772 27.4421 4.72694C27.9865 4.43454 28.4357 4.02148 28.7792 3.49842C28.9709 3.20673 28.9687 2.91646 28.814 2.61909C28.6671 2.33591 28.4109 2.22449 28.1362 2.19255L28.137 2.19184Z" fill="#252857"/>
<path d="M20.9859 1.40885C20.9277 0.489771 21.8972 -0.265363 22.8581 0.0902028C23.3748 0.281116 23.7119 0.669329 23.7467 1.21652C23.807 2.15334 23.5167 3.00783 22.9525 3.75445C22.6189 4.19518 22.1399 4.18312 21.7907 3.7509C21.3628 3.22146 21.1683 2.59052 21.032 1.93688C20.9994 1.78074 20.9951 1.62176 20.9859 1.40814V1.40885ZM21.5331 1.46634C21.5742 2.10508 21.773 2.73246 22.1399 3.30094C22.3258 3.58838 22.4295 3.58483 22.6197 3.29101C22.9277 2.8155 23.1108 2.29031 23.1896 1.73106C23.2215 1.50466 23.2442 1.27188 23.147 1.0547C22.9795 0.680684 22.5714 0.479835 22.1853 0.572098C21.7957 0.66507 21.5267 1.0178 21.5338 1.46563L21.5331 1.46634Z" fill="#272958"/>
<path d="M14.9848 18.4556C15.5725 18.4499 15.8883 18.8396 15.735 19.4478C15.5228 20.2867 15.1154 21.0241 14.4391 21.5826C14.0076 21.9382 13.5058 21.968 13.0132 21.7416C12.5448 21.5266 12.2688 21.1405 12.2191 20.6146C12.1673 20.0667 12.3993 19.6508 12.8223 19.3229C13.3717 18.8964 13.9948 18.6359 14.6704 18.4932C14.7733 18.4712 14.8805 18.4677 14.9855 18.4563L14.9848 18.4556ZM13.608 21.3129C13.823 21.3321 14.021 21.2413 14.1807 21.0858C14.6853 20.5954 15.021 20.0028 15.1956 19.3222C15.2637 19.0575 15.1935 18.9801 14.9273 19.0156C14.2538 19.1057 13.652 19.3733 13.1197 19.7899C12.7911 20.0475 12.6818 20.4237 12.8074 20.7615C12.9338 21.1021 13.2297 21.3108 13.6087 21.3129H13.608Z" fill="#272958"/>
<path d="M29.7637 18.2803C30.4493 18.342 31.1377 18.5869 31.768 19.0013C32.1228 19.2341 32.384 19.5322 32.4486 19.9644C32.6253 21.1475 31.5536 21.8863 30.57 21.5173C30.3627 21.4392 30.1924 21.3001 30.037 21.1468C29.5089 20.6273 29.1143 20.0198 28.9099 19.3065C28.7268 18.6671 29.0363 18.2824 29.7637 18.2803ZM31.9241 20.2682C31.9205 19.9325 31.7956 19.6947 31.5458 19.5173C31.2172 19.2838 30.8588 19.1128 30.4749 18.9935C30.1938 18.9062 29.9106 18.8232 29.6126 18.8338C29.4387 18.8402 29.3975 18.8984 29.4231 19.0702C29.4302 19.1163 29.4401 19.1632 29.455 19.2079C29.6693 19.8587 30.032 20.413 30.5487 20.8629C30.8219 21.1007 31.142 21.1255 31.4571 20.9751C31.7545 20.8324 31.9071 20.5726 31.9234 20.2689L31.9241 20.2682Z" fill="#272958"/>
<path d="M11.2813 13.1433C11.8924 13.1873 12.5006 13.2604 13.0435 13.5713C13.6198 13.9006 13.6957 14.3527 13.2266 14.8175C12.6148 15.4236 11.8696 15.8012 11.0116 15.9247C10.2721 16.0311 9.5865 15.457 9.50062 14.7409C9.40623 13.9538 9.90871 13.2881 10.6816 13.1717C10.8796 13.1419 11.0797 13.1341 11.2813 13.1433ZM11.1727 13.6884C11.0357 13.6791 10.9016 13.7004 10.7667 13.7189C10.3083 13.7828 9.98819 14.1908 10.0407 14.6436C10.0947 15.1064 10.512 15.4541 10.9733 15.3782C11.6482 15.2675 12.2437 14.9658 12.7539 14.5116C13.0669 14.2334 13.057 14.171 12.6482 13.985C12.184 13.7742 11.6809 13.7061 11.1734 13.6877L11.1727 13.6884Z" fill="#252857"/>
<path d="M33.6008 12.8225C33.8818 12.8133 34.2942 12.8885 34.6235 13.2214C35.0692 13.672 35.1764 14.3023 34.8974 14.8615C34.6341 15.3895 34.0309 15.6933 33.4163 15.5925C32.664 15.469 31.9933 15.1568 31.3907 14.6933C31.2815 14.6096 31.1956 14.5031 31.1175 14.3938C30.9117 14.1042 30.9663 13.743 31.2339 13.5031C31.4759 13.2859 31.7669 13.166 32.0699 13.0681C32.5149 12.924 32.9684 12.8282 33.6001 12.8225H33.6008ZM33.4014 13.3704C32.9472 13.386 32.444 13.4996 31.9599 13.6947C31.7974 13.76 31.581 13.8346 31.5632 14.0035C31.5455 14.1646 31.7428 14.2781 31.8826 14.3739C32.3879 14.7196 32.9358 14.9609 33.5454 15.0567C34.1444 15.1511 34.6661 14.5223 34.4546 13.951C34.3063 13.55 33.9997 13.369 33.4021 13.3697L33.4014 13.3704Z" fill="#252857"/>
<path d="M22.6689 21.2013C21.8059 21.2013 20.9429 21.1992 20.0806 21.2035C19.9734 21.2035 19.9315 21.1822 19.9188 21.0651C19.8343 20.2667 19.6093 19.5058 19.2843 18.7734C18.9656 18.0552 18.522 17.4179 18.0245 16.8139C17.2637 15.8899 16.8209 14.826 16.713 13.6386C16.5583 11.9318 17.0529 10.4187 18.175 9.12132C19.0806 8.07378 20.2303 7.4244 21.5845 7.17884C23.2679 6.87366 24.825 7.2271 26.2132 8.23702C27.4815 9.16035 28.2827 10.4087 28.5638 11.9431C28.8931 13.7359 28.4949 15.381 27.3331 16.8104C26.7519 17.525 26.2522 18.2844 25.9137 19.1446C25.6724 19.7571 25.5177 20.3923 25.4389 21.0438C25.4205 21.1971 25.3566 21.2028 25.2388 21.2028C24.3821 21.1999 23.5248 21.2013 22.6682 21.2013H22.6689Z" fill="white"/>
<path d="M16.9476 39.1224C16.9476 37.4503 16.9498 35.779 16.9441 34.1069C16.9441 33.9621 16.9746 33.9224 17.1251 33.9224C20.4628 33.9273 23.8013 33.9273 27.1391 33.9224C27.303 33.9224 27.3272 33.972 27.3272 34.119C27.3229 37.4511 27.3229 40.7825 27.3272 44.1146C27.3272 44.2714 27.2931 44.319 27.1278 44.3182C23.8013 44.3126 20.4756 44.3133 17.1492 44.3175C16.9952 44.3175 16.9427 44.2891 16.9434 44.1202C16.9505 42.4545 16.9476 40.7881 16.9476 39.1224Z" fill="#FEFEFF"/>
<path d="M8.65244 33.3689C11.4601 33.2979 13.849 35.4342 14.0306 38.261C14.2244 41.2701 11.9491 43.6903 9.09388 43.8514C6.13934 44.0174 3.63902 41.7378 3.55386 38.7464C3.47437 35.9494 5.66029 33.4676 8.65173 33.3689H8.65244Z" fill="white"/>
<path d="M35.4611 43.864C33.7891 43.864 32.1177 43.864 30.4456 43.864C30.3746 43.864 30.3022 43.8668 30.2341 43.8519C30.0879 43.8207 30.0127 43.6844 30.0581 43.5411C30.0758 43.4857 30.1042 43.4325 30.1312 43.3807C31.8161 40.1557 33.5016 36.9308 35.1879 33.7066C35.2234 33.6391 35.2582 33.5668 35.3114 33.515C35.4306 33.3986 35.6166 33.4582 35.7117 33.6392C36.1304 34.4383 36.5484 35.2381 36.9664 36.0373C38.2425 38.478 39.5186 40.918 40.7939 43.3587C40.8209 43.4112 40.8528 43.4623 40.872 43.5176C40.9323 43.6922 40.8379 43.8406 40.6541 43.8604C40.5959 43.8668 40.5363 43.864 40.4774 43.864C38.8053 43.864 37.1339 43.864 35.4619 43.864H35.4611Z" fill="white"/>
<path d="M22.6989 21.7676C23.6024 21.7676 24.5058 21.7605 25.4086 21.7704C25.9387 21.7761 26.3433 22.3226 26.2198 22.8378C26.1062 23.3126 25.7826 23.5632 25.2752 23.5632C23.9643 23.5617 22.6542 23.561 21.3434 23.5539C20.86 23.5511 20.3767 23.5745 19.8934 23.549C19.508 23.5284 19.0744 23.1146 19.1127 22.5859C19.1432 22.165 19.5222 21.774 19.953 21.7711C20.8678 21.7648 21.7834 21.769 22.6982 21.769C22.6982 21.769 22.6982 21.769 22.6982 21.7683L22.6989 21.7676Z" fill="#EAEDFC"/>
<path d="M22.6822 24.1366C23.3018 24.1366 23.9214 24.1366 24.5417 24.1374C24.6176 24.1374 24.7298 24.1061 24.7056 24.2459C24.6872 24.3524 24.7951 24.5036 24.5715 24.5412C23.3096 24.7555 22.0506 24.9812 20.7901 25.2048C20.6794 25.2246 20.6347 25.2012 20.639 25.0749C20.6489 24.8095 20.6482 24.5433 20.639 24.2786C20.6347 24.1586 20.6752 24.1331 20.788 24.1338C21.4197 24.1388 22.0513 24.1359 22.6822 24.1359V24.1366Z" fill="#EAEDFC"/>
<path d="M24.7073 25.4048C24.7073 25.7028 24.708 25.7078 24.4113 25.7603C23.2559 25.9654 22.0998 26.1677 20.9444 26.3707C20.9274 26.3735 20.9047 26.3813 20.8926 26.3742C20.696 26.2642 20.7379 26.0492 20.679 25.8795C20.6371 25.7582 20.7506 25.7646 20.8152 25.7532C21.9252 25.5588 23.0359 25.3678 24.1459 25.1755C24.2843 25.1514 24.4241 25.1315 24.5611 25.0996C24.6782 25.0726 24.7243 25.106 24.7087 25.2273C24.7016 25.2855 24.7073 25.3451 24.7073 25.404V25.4048Z" fill="#EAEDFC"/>
<path d="M21.1677 26.8863C22.3082 26.6876 23.4203 26.4931 24.5708 26.293C24.2571 26.9402 23.805 27.3661 23.1357 27.508C22.3877 27.6663 21.7291 27.4732 21.167 26.887L21.1677 26.8863Z" fill="#EAEDFC"/>
<path d="M31.2852 8.89401C31.1178 8.89188 30.9559 8.86775 30.7934 8.83368C30.6451 8.80175 30.616 8.73148 30.6692 8.5938C30.7884 8.28366 30.9978 8.03668 31.2164 7.7975C31.5159 7.46961 31.848 7.18289 32.259 6.99907C32.655 6.82165 33.1525 7.00475 33.3384 7.39793C33.5279 7.79892 33.3711 8.29359 32.9907 8.4987C32.4577 8.78613 31.8757 8.8642 31.2852 8.89543V8.89401Z" fill="#273BD3"/>
<path d="M17.3376 4.47002C17.3376 5.00159 17.2396 5.06476 16.8237 4.85184C16.2723 4.57009 15.7975 4.19536 15.4327 3.6872C15.1602 3.3068 15.2382 2.77735 15.613 2.51547C16.0111 2.23726 16.5569 2.32952 16.8067 2.73264C17.1488 3.28409 17.2865 3.89941 17.3376 4.47002Z" fill="#273BD3"/>
<path d="M13.035 9.13204C12.4629 9.11075 11.9605 9.071 11.4857 8.86519C11.0861 8.69202 10.8881 8.34355 10.9598 7.91559C11.0208 7.55222 11.3622 7.25982 11.7589 7.23781C11.9612 7.22646 12.1379 7.31375 12.3061 7.40957C12.8575 7.72326 13.3132 8.14199 13.651 8.68066C13.8093 8.93403 13.7681 9.01707 13.4771 9.071C13.3096 9.10223 13.1393 9.11784 13.035 9.13204Z" fill="#273BD3"/>
<path d="M28.1369 2.19114C28.4116 2.22308 28.6678 2.3345 28.8147 2.61768C28.9687 2.91505 28.9715 3.20532 28.7799 3.49701C28.4364 4.02007 27.9865 4.43383 27.4428 4.72553C27.0504 4.93631 26.9652 4.93489 26.946 4.47925C26.9176 3.81425 27.0546 3.17977 27.3726 2.59355C27.5252 2.31321 27.7899 2.19185 28.1376 2.19043L28.1369 2.19114Z" fill="#273BD3"/>
<path d="M21.5339 1.46658C21.5268 1.01875 21.7958 0.666027 22.1854 0.573054C22.5715 0.480791 22.9803 0.68164 23.1471 1.05566C23.2443 1.27354 23.2216 1.50562 23.1897 1.73202C23.1109 2.29127 22.9278 2.81646 22.6198 3.29197C22.4296 3.58508 22.326 3.58933 22.14 3.3019C21.7724 2.73271 21.5744 2.10603 21.5332 1.46729L21.5339 1.46658Z" fill="#273BD3"/>
<path d="M13.6078 21.3128C13.2288 21.3114 12.9329 21.1027 12.8065 20.7614C12.6809 20.4235 12.7902 20.0474 13.1188 19.7898C13.6511 19.3725 14.2529 19.1049 14.9265 19.0155C15.1933 18.98 15.2629 19.0566 15.1947 19.3221C15.0201 20.0027 14.6844 20.5953 14.1798 21.0857C14.0194 21.2411 13.8221 21.3327 13.6071 21.3128H13.6078Z" fill="#273BD3"/>
<path d="M31.925 20.2681C31.9094 20.5719 31.7568 20.8323 31.4587 20.9743C31.1436 21.1247 30.8235 21.1006 30.5503 20.8621C30.0336 20.4122 29.6709 19.8579 29.4566 19.2071C29.4417 19.1624 29.4318 19.1162 29.4247 19.0694C29.3991 18.8977 29.4403 18.8395 29.6141 18.8331C29.9122 18.8217 30.1954 18.9055 30.4765 18.9928C30.8604 19.112 31.2188 19.2837 31.5474 19.5165C31.7965 19.6932 31.9214 19.9317 31.9257 20.2674L31.925 20.2681Z" fill="#273BD3"/>
<path d="M11.1735 13.6885C11.6809 13.7063 12.1848 13.7751 12.6483 13.9859C13.0571 14.1718 13.067 14.2336 12.754 14.5125C12.2445 14.9667 11.649 15.2676 10.9734 15.3791C10.5128 15.455 10.0947 15.1072 10.0408 14.6445C9.98827 14.1917 10.3084 13.7836 10.7668 13.7198C10.901 13.7013 11.0358 13.68 11.1728 13.6892L11.1735 13.6885Z" fill="#273BD3"/>
<path d="M33.4013 13.3701C33.9988 13.3687 34.3061 13.5504 34.4538 13.9514C34.6646 14.522 34.1436 15.1508 33.5446 15.0571C32.935 14.9613 32.3871 14.72 31.8818 14.3744C31.742 14.2786 31.5447 14.165 31.5624 14.0039C31.5808 13.835 31.7973 13.7605 31.9591 13.6952C32.4439 13.5007 32.947 13.3864 33.4006 13.3708L33.4013 13.3701Z" fill="#273BD3"/>
</svg>
