<svg width="67" height="58" viewBox="0 0 67 58" fill="none" xmlns="http://www.w3.org/2000/svg">
<g clip-path="url(#clip0_3725_34182)">
<path d="M52.3747 14.9431C53.5144 16.0344 54.7077 17.078 55.7844 18.2283C59.8117 22.5286 62.4048 27.5506 63.4585 33.365C63.8601 35.578 64.1049 37.7986 63.9729 40.0287C63.8677 41.7922 63.8237 43.5881 63.2156 45.2888C62.8695 44.887 62.9422 44.3937 62.9403 43.9271C62.9288 41.2704 62.946 38.6118 62.9307 35.955C62.9211 34.1972 62.5635 33.8335 60.8023 33.8259C56.8323 33.8106 52.8604 33.8106 48.8904 33.8259C47.2019 33.8316 46.9647 34.0753 46.9609 35.7589C46.9514 40.1239 46.959 44.4908 46.9571 48.8559C46.9571 49.2044 46.9647 49.5529 46.9494 49.8995C46.8997 51.0136 46.6875 51.2307 45.5993 51.2821C45.3775 51.2936 45.1538 51.2898 44.9319 51.2898C37.3075 51.2898 29.685 51.2898 22.0606 51.2898C20.1406 51.2898 20.0374 51.185 20.0374 49.2349C20.0336 44.7746 20.0412 40.3144 20.0336 35.8541C20.0316 34.0791 19.783 33.8297 17.9893 33.8259C14.0824 33.8163 10.1755 33.822 6.26868 33.8239C6.01434 33.8239 5.76 33.8239 5.50758 33.8544C4.48066 33.9763 4.10776 34.3401 4.07716 35.3875C4.02744 37.1891 4.06569 38.9927 4.05995 40.7962C4.05613 41.935 4.06951 43.0739 4.0523 44.2128C4.04656 44.5899 4.06378 44.9784 3.77884 45.2888C3.36769 44.5289 3.30267 43.6624 3.21853 42.8511C2.31974 34.1858 4.39461 26.3661 10.0168 19.5767C14.6274 14.008 20.5537 10.6067 27.5796 9.08118C29.4575 8.67363 31.3927 8.50222 33.3337 8.65458C33.4064 9.11737 33.1004 9.42589 32.869 9.75726C31.3009 11.9912 30.383 14.4422 30.3429 17.1904C30.339 17.4437 30.3276 17.697 30.2377 17.9388C30.0541 18.4321 29.6544 18.573 29.1744 18.5616C28.7021 18.5521 28.3961 18.335 28.3062 17.8531C28.2546 17.5732 28.2336 17.2875 28.1513 17.0133C27.8683 16.0687 27.2277 15.5792 26.2696 15.5754C25.2963 15.5716 24.6556 16.0439 24.363 16.9809C24.3057 17.1637 24.2636 17.3504 24.254 17.5389C24.2196 18.2169 23.885 18.5368 23.1908 18.6225C22.1295 18.752 21.9726 18.933 21.9707 20.0299C21.9516 27.9696 21.9612 35.9093 21.9593 43.8509C21.9593 44.6775 22.2977 45.1974 23.1162 45.3212C23.8601 45.4355 24.2426 45.8163 24.2865 46.5648C24.3191 47.119 24.6939 47.3913 25.1873 47.538C25.6825 47.6865 26.1931 47.6656 26.6999 47.6656C31.7503 47.6656 36.8008 47.6656 41.8512 47.6656C42.0424 47.6656 42.2317 47.6656 42.423 47.6599C43.9203 47.6027 44.2684 47.2618 44.2703 45.7744C44.276 38.7832 44.2798 31.7919 44.2626 24.8006C44.2607 23.8484 44.3525 23.0542 45.215 22.3915C46.0946 21.7154 45.9493 20.5651 45.0601 19.7519C44.1409 18.9114 44.2027 18.1255 45.2456 17.3942C46.567 16.4629 47.8559 15.484 49.4125 14.9412C50.4127 14.5927 51.3879 14.6689 52.3747 14.9412V14.9431Z" fill="#DCDEE0"/>
<path d="M52.3746 14.943C50.6573 14.8973 49.0013 15.0954 47.546 16.1238C46.3852 16.9446 45.2149 17.7521 44.0005 18.5996C44.4748 18.9519 44.9376 19.2605 45.3583 19.6185C46.4445 20.5383 46.3718 22.2276 45.1288 22.9037C44.5723 23.2065 44.5532 23.536 44.5532 24.0178C44.5589 31.3252 44.557 38.6326 44.557 45.9401C44.557 47.5855 44.2874 47.8559 42.6141 47.8579C37.055 47.8598 31.4959 47.8598 25.9387 47.8579C24.2903 47.8579 24.0971 47.7036 23.9805 46.0677C23.948 45.6049 23.7433 45.5954 23.3915 45.5725C21.8712 45.4716 21.678 45.2525 21.678 43.7214C21.678 35.8121 21.678 27.9048 21.678 19.9956C21.678 18.5482 21.8941 18.3082 23.3704 18.2473C23.8065 18.2301 23.9556 18.133 23.9824 17.6645C24.0665 16.0857 24.9328 15.1887 26.2714 15.1982C27.5986 15.2078 28.4304 16.0762 28.5241 17.7007C28.5605 18.3158 28.8932 18.2454 29.2699 18.2339C29.6275 18.2206 30.0521 18.3558 30.0444 17.7178C30.0024 14.2898 31.1937 11.2979 33.3374 8.65451C35.2555 6.7748 37.3418 5.17886 40.0497 4.58848C41.5853 4.25329 43.1362 4.2552 44.689 4.34471C45.6126 4.39803 46.5248 4.32566 47.4408 4.27043C47.7716 4.24949 48.0547 4.14855 48.2727 3.88383C48.5461 3.55245 48.919 3.38486 49.3378 3.32392C49.8503 3.24774 50.2921 3.11443 50.5311 2.56404C50.6898 2.19648 51.101 2.08602 51.4758 2.00032C53.1739 1.61942 54.8682 1.22711 56.5721 0.870971C57.7023 0.634817 58.2454 0.962385 58.5055 2.09173C59.2857 5.47215 60.0449 8.85638 60.7792 12.2444C61.0221 13.3642 60.6434 13.8956 59.519 14.1603C57.8859 14.5431 56.247 14.9069 54.6101 15.2649C54.0785 15.3811 53.5411 15.4649 53.0879 15.0306C52.8775 14.8307 52.6327 14.8402 52.3784 14.9411L52.3746 14.943Z" fill="#0B3573"/>
<path d="M3.77882 45.2904C3.79986 42.0357 3.82472 38.7809 3.84193 35.5262C3.85149 33.7989 4.02551 33.6122 5.74278 33.6122C10.0302 33.6122 14.3176 33.6103 18.605 33.6122C20.0794 33.6122 20.3395 33.8712 20.3414 35.3129C20.3414 40.2778 20.3567 45.2447 20.3242 50.2096C20.3204 50.9105 20.4829 51.1009 21.2058 51.099C29.4001 51.0704 37.5944 51.0704 45.7886 51.099C46.5153 51.1009 46.674 50.9066 46.6683 50.2077C46.6358 45.2428 46.6511 40.2759 46.653 35.311C46.653 33.8712 46.9131 33.6141 48.3856 33.6122C52.7361 33.6084 57.0885 33.6084 61.4391 33.6122C62.9077 33.6122 63.1429 33.8598 63.1525 35.3358C63.1735 38.6533 63.1946 41.9728 63.2175 45.2904C63.1946 47.0273 63.1735 48.7622 63.1525 50.4991C63.1506 50.7181 63.1162 50.9581 63.3437 51.0971C63.9557 51.4723 63.403 51.6875 63.2309 51.9541C63.0397 52.7007 63.1391 53.4605 63.1582 54.209C63.1793 55.0412 62.7566 55.4183 62.0223 55.584C61.7737 55.6392 61.5194 55.6488 61.265 55.6488C57.0503 55.6564 52.8355 55.6564 48.6208 55.6488C48.2708 55.6488 47.9247 55.624 47.5843 55.5307C47.0909 55.3936 46.718 55.1441 46.6779 54.5785C46.6683 54.0109 46.5899 53.432 46.6683 52.8759C46.7964 51.9579 46.3891 51.8265 45.5745 51.8303C37.776 51.8589 29.9776 51.8475 22.1811 51.8475C20.9597 51.8475 20.3465 52.4423 20.3414 53.6319C20.3414 53.9481 20.3261 54.2623 20.3204 54.5785C20.2707 55.1936 19.8461 55.4259 19.3202 55.5535C18.8536 55.6678 18.3756 55.6526 17.9013 55.6526C14.004 55.6526 10.1048 55.6526 6.20747 55.6526C5.79632 55.6526 5.38135 55.6716 4.97594 55.5821C4.23969 55.4221 3.81707 55.0393 3.83811 54.209C3.85723 53.4605 3.95667 52.6988 3.76544 51.9541C3.59333 51.6856 3.04067 51.4704 3.65261 51.0971C3.88018 50.9581 3.84767 50.7181 3.84384 50.4991C3.82281 48.7622 3.79986 47.0273 3.77882 45.2904Z" fill="#0B3573"/>
<path d="M46.6777 54.5775C46.9703 55.1089 47.4427 55.2727 48.0259 55.2707C52.6289 55.2631 57.2337 55.265 61.8367 55.2688C62.6972 55.2688 63.1084 54.8784 63.1199 54.0024C63.1294 53.3206 62.9745 52.6235 63.2289 51.9551C63.2403 52.6807 63.2499 53.4044 63.2652 54.13C63.269 54.3452 63.2269 54.5566 63.3589 54.768C63.923 55.6783 63.8905 55.7811 62.9057 56.1887C61.6378 56.7124 60.2762 56.9124 58.9376 57.0152C55.2201 57.3028 51.5006 57.3371 47.8289 56.4991C47.5517 56.4363 47.2744 56.3677 47.0086 56.2687C45.8057 55.8211 45.7177 55.3622 46.6777 54.5775Z" fill="#DCDEE0"/>
<path d="M3.76356 51.9551C4.01981 52.6578 3.84771 53.3834 3.87639 54.0995C3.9089 54.8822 4.29519 55.265 5.06203 55.265C9.73 55.2688 14.3961 55.265 19.064 55.2707C19.6243 55.2707 20.0374 55.0555 20.3185 54.5775C20.5652 54.886 21.1465 54.9756 21.0681 55.4726C20.9821 56.0306 20.4007 56.1106 19.9781 56.2668C18.7848 56.7086 17.5227 56.8629 16.2663 56.9886C13.5221 57.259 10.7722 57.2552 8.02995 56.9886C6.74296 56.8629 5.45023 56.6972 4.22635 56.242C3.16118 55.8459 3.12294 55.7354 3.64691 54.7775C3.76548 54.5604 3.72532 54.349 3.72914 54.1338C3.74444 53.4082 3.754 52.6807 3.76548 51.9551H3.76356Z" fill="#DCDEE0"/>
<path d="M1.33676 51.0254C1.76703 51.1758 2.53387 50.7873 2.55108 51.4101C2.57212 52.1205 1.78424 51.8672 1.34059 51.8519C0.860594 51.8367 -0.00759907 52.1585 5.02102e-05 51.452C0.00769949 50.7112 0.887366 51.2273 1.33676 51.0254Z" fill="#0B3573"/>
<path d="M65.7418 51.0195C66.1835 51.2004 67.0039 50.7452 66.9982 51.4613C66.9924 52.1146 66.1873 51.8536 65.7284 51.8536C65.2675 51.8536 64.4471 52.1088 64.4433 51.488C64.4395 50.6824 65.3096 51.2442 65.7418 51.0176V51.0195Z" fill="#0B3573"/>
<path d="M32.4652 19.004C32.2836 19.4192 32.0923 19.722 32.0177 20.0515C31.8476 20.8151 32.0483 21.4931 32.6565 22.0188C33.2875 22.5634 33.997 22.691 34.7791 22.3882C36.7278 21.6322 38.6745 20.8704 40.6251 20.12C40.8833 20.021 41.1166 19.8191 41.5048 19.9048C41.5048 20.2 41.5048 20.5066 41.5048 20.8132C41.5048 28.4082 41.4895 36.0032 41.5258 43.5982C41.5296 44.5333 41.3154 44.859 40.321 44.8514C34.76 44.8056 29.199 44.8076 23.638 44.8514C22.6684 44.859 22.4122 44.5752 22.416 43.6154C22.4542 35.7366 22.4428 27.8559 22.4275 19.9753C22.4275 19.3316 22.5231 18.9678 23.2918 18.985C23.8445 18.9983 23.9879 19.1697 23.9726 19.6953C23.9382 20.897 23.9478 22.1007 23.9669 23.3024C23.9841 24.3841 24.5387 25.0031 25.4547 25.0183C26.4166 25.0354 26.9864 24.4031 27.0094 23.2719C27.0247 22.5444 27.0113 21.8169 27.0094 21.0875C27.0094 20.817 26.9692 20.5542 26.6154 20.5657C26.2674 20.579 26.2483 20.8494 26.2483 21.1141C26.2483 21.874 26.2445 22.6339 26.2483 23.3919C26.2483 23.9004 26.0876 24.2622 25.4987 24.2679C24.9192 24.2736 24.7223 23.9385 24.7242 23.4185C24.7242 22.1216 24.7299 20.8228 24.7203 19.5258C24.7184 19.1906 24.7873 18.9983 25.185 19.0002C27.5907 19.0116 29.9945 19.0059 32.4633 19.0059L32.4652 19.004Z" fill="#DCDEE0"/>
<path d="M44.2855 5.0678C45.2092 5.20111 46.2896 5.15921 47.3586 5.01828C47.8692 4.95162 48.0165 5.1554 48.1102 5.57819C48.6972 8.25967 49.2958 10.9392 49.8905 13.6188C49.9651 13.954 50.0837 14.234 49.5482 14.392C48.0432 14.8339 46.7275 15.6661 45.4865 16.6069C42.7423 18.6866 39.4971 19.7188 36.357 20.9701C35.8273 21.1814 35.2785 21.3414 34.7583 21.5738C33.9896 21.9166 33.3088 21.8994 32.8843 21.0957C32.454 20.2806 32.8843 19.715 33.5651 19.2751C34.9477 18.38 36.3341 17.4925 37.711 16.5898C38.9463 15.7804 39.5487 14.613 39.5755 13.1579C39.5965 11.9658 39.0897 11.124 38.2101 10.7907C37.2157 10.4155 36.0931 10.7412 35.3301 11.7029C34.0374 13.3351 33.3069 15.1824 33.261 17.283C33.2533 17.5934 33.4886 18.1191 33.0487 18.1857C32.3412 18.2943 31.5935 18.3495 30.8897 18.1248C30.8018 18.0962 30.7979 17.7229 30.7979 17.5096C30.7845 10.3622 36.9212 4.70785 43.0827 5.0678C43.4307 5.08874 43.7807 5.0697 44.2836 5.0697L44.2855 5.0678Z" fill="white"/>
<path d="M51.0246 3.45898C50.9328 3.03999 51.168 2.84574 51.5657 2.75813C53.2983 2.37724 55.0309 1.99825 56.7596 1.60403C57.3448 1.47072 57.6527 1.67069 57.7808 2.25726C58.5266 5.6472 59.282 9.03524 60.0488 12.4195C60.1807 13.006 60.0163 13.2955 59.4082 13.4212C57.7024 13.7735 56.0023 14.1544 54.3061 14.5487C53.7611 14.6763 53.4551 14.5144 53.3346 13.9735C52.5735 10.5702 51.8086 7.16887 51.0456 3.7675C51.0246 3.67608 51.0322 3.57896 51.0246 3.46088V3.45898Z" fill="#DCDEE0"/>
<path d="M43.792 34.1956C43.792 38.1493 43.7672 42.103 43.8111 46.0547C43.8207 46.9174 43.5224 47.1174 42.7154 47.1117C37.0626 47.0831 31.4098 47.1003 25.7569 47.0907C25.3209 47.0907 24.7606 47.2602 24.7147 46.4851C24.6784 45.8547 24.7492 45.5462 25.5466 45.5538C30.4364 45.5976 35.3281 45.5767 40.2179 45.5748C42.0308 45.5748 42.2641 45.3463 42.2641 43.5751C42.2641 36.4581 42.2641 29.3431 42.2679 22.2261C42.2679 21.7709 42.048 21.2129 42.9372 21.2434C43.6983 21.27 43.8054 21.5919 43.8016 22.2356C43.7786 26.2197 43.7901 30.2058 43.7901 34.1899L43.792 34.1956Z" fill="white"/>
<path d="M34.0736 17.9708C33.978 15.895 34.5574 14.1714 35.6494 12.6003C35.7565 12.446 35.875 12.2975 35.9955 12.1508C36.5405 11.4957 37.2423 11.2614 38.0264 11.5814C38.82 11.9051 38.7837 12.7336 38.7493 13.364C38.69 14.4609 38.1698 15.3713 37.1639 15.975C36.1466 16.5844 35.1694 17.2586 34.0736 17.9708Z" fill="white"/>
<path d="M52.4759 13.9216C52.4357 14.3444 51.9309 14.1882 51.6459 14.2872C51.1296 14.47 50.7969 14.2148 50.6802 13.6854C50.4507 12.6399 50.2232 11.5943 49.9899 10.5507C49.5978 8.80046 49.1982 7.05026 48.81 5.30006C48.613 4.41449 49.181 3.79744 50.0511 3.93266C50.4641 3.99741 50.3551 4.38782 50.4048 4.60303C51.0225 7.25975 51.6 9.926 52.1871 12.5884C52.2751 12.9865 52.3592 13.3864 52.4759 13.9216Z" fill="white"/>
<path d="M26.2713 18.2411C26.082 18.2411 25.8907 18.2411 25.7014 18.2411C24.6974 18.2392 24.4584 17.8774 24.8351 16.9328C25.1277 16.1957 25.9252 15.8129 26.6958 16.0396C27.4474 16.2605 27.9388 17.1518 27.7858 17.9212C27.7227 18.2354 27.543 18.2392 27.3173 18.2411C26.9693 18.243 26.6212 18.2411 26.2732 18.2411H26.2713Z" fill="#DCDEE0"/>
<path d="M44.5914 22.2986C44.4958 20.8246 44.2529 20.5732 42.9965 20.5104C42.746 20.497 42.3559 20.6875 42.287 20.2742C42.2392 19.9904 42.1149 19.6095 42.4381 19.3981C42.7116 19.2191 43.0195 18.8973 43.3751 19.1353C43.9756 19.5391 44.599 19.9447 45.0943 20.4608C45.6164 21.0074 45.3926 21.7006 44.5914 22.2967V22.2986Z" fill="white"/>
<path d="M47.416 44.3409C47.416 41.3051 47.4332 38.2675 47.4026 35.2318C47.3969 34.5767 47.5804 34.3615 48.2555 34.3653C52.7016 34.3919 57.1478 34.39 61.5939 34.3653C62.2326 34.3615 62.3914 34.5824 62.3914 35.188C62.3722 41.3566 62.3722 47.5232 62.3914 53.6918C62.3914 54.3031 62.2173 54.5145 61.5844 54.5126C57.1382 54.4897 52.6921 54.4878 48.2459 54.5145C47.5575 54.5183 47.3988 54.2821 47.4045 53.6403C47.4332 50.5418 47.4179 47.4413 47.4179 44.3409H47.416Z" fill="white"/>
<path d="M19.5765 44.5064C19.5765 47.5421 19.5535 50.5798 19.5937 53.6136C19.6033 54.343 19.3623 54.5163 18.6681 54.5125C14.2851 54.4858 9.90399 54.4839 5.52095 54.5125C4.82104 54.5163 4.59539 54.3335 4.5973 53.6117C4.62407 47.4755 4.62216 41.3412 4.5973 35.205C4.59539 34.5213 4.82678 34.3595 5.47123 34.3633C9.88486 34.3861 14.2985 34.3918 18.714 34.3595C19.4694 34.3537 19.5956 34.6337 19.588 35.3022C19.5555 38.3703 19.5746 41.4364 19.5746 44.5045L19.5765 44.5064Z" fill="white"/>
<path d="M31.9719 38.3723C30.4153 38.3723 28.8586 38.3532 27.3039 38.3799C26.5925 38.3913 26.3841 38.1228 26.4262 37.4143C26.6002 34.4453 29.0537 32.1352 32.0847 32.1485C35.0985 32.1618 37.554 34.5176 37.6955 37.4791C37.728 38.1628 37.4756 38.3837 36.833 38.378C35.2133 38.3608 33.5935 38.3723 31.9738 38.3723H31.9719Z" fill="#0B3573"/>
<path d="M29.3311 27.5527C29.2183 26.1815 29.7232 25.1436 31.0121 24.5685C32.0791 24.0923 33.1997 24.3552 34.0603 25.2312C34.8558 26.0406 35.0815 28.1393 34.5059 29.362C34.0144 30.4037 33.0009 30.9732 31.7904 30.8836C30.2223 30.7694 29.3426 29.5772 29.333 27.5527H29.3311Z" fill="#0B3573"/>
<path d="M54.8931 50.3899C53.7227 50.3899 52.5505 50.3804 51.3801 50.3937C50.8982 50.3994 50.6267 50.2909 50.6114 49.7157C50.5521 47.4875 52.6901 45.4383 55.069 45.4973C57.2605 45.5507 59.2818 47.2513 59.3679 49.8071C59.3851 50.3328 59.0198 50.3975 58.5972 50.3937C57.3638 50.3842 56.1284 50.3899 54.8931 50.3899Z" fill="#0B3573"/>
<path d="M57.1398 42.0955C57.1398 43.9657 55.8203 45.0989 54.2713 44.5561C53.0417 44.1257 52.4221 42.6269 52.8601 41.1471C53.2157 39.9454 54.2886 39.3055 55.4914 39.5778C56.5967 39.8292 57.1398 40.6577 57.1379 42.0955H57.1398Z" fill="#0B3573"/>
<path d="M12.1202 50.3884C10.9174 50.3884 9.71453 50.377 8.51168 50.3941C7.93416 50.4017 7.74293 50.1694 7.7697 49.5923C7.87488 47.3984 9.73748 45.5473 11.9519 45.4825C14.2831 45.414 16.2489 47.0746 16.5109 49.2819C16.6046 50.0685 16.4478 50.4608 15.5375 50.4056C14.4016 50.337 13.26 50.3884 12.1202 50.3884Z" fill="#0B3573"/>
<path d="M10.0109 41.9979C9.90767 41.0286 10.2557 40.1487 11.275 39.6954C12.1145 39.3222 12.9444 39.4593 13.6482 40.0973C14.3882 40.7658 14.5852 42.6816 14.0134 43.6244C13.4818 44.5042 12.4377 44.8889 11.4796 44.5613C10.4565 44.2109 10.0148 43.4739 10.009 41.9998L10.0109 41.9979Z" fill="#0B3573"/>
<path d="M32.0792 37.5971C30.6813 37.5971 29.2815 37.5609 27.8855 37.6123C27.2124 37.6371 27.1569 37.3533 27.2487 36.8258C27.6369 34.6033 29.7214 32.9045 32.0716 32.9121C34.439 32.9178 36.4298 34.5919 36.8524 36.8715C36.969 37.5076 36.7568 37.6238 36.1793 37.6104C34.8139 37.5762 33.4465 37.599 32.0812 37.599L32.0792 37.5971Z" fill="white"/>
<path d="M33.8211 26.3633C34.0946 27.1251 34.0927 27.8031 33.9397 28.4944C33.6758 29.6885 32.7101 30.3436 31.5799 30.0808C30.5683 29.8465 29.8569 28.5991 30.0864 27.5555C30.1629 27.2108 30.356 27.2603 30.5645 27.2869C31.7539 27.4412 32.8 27.0736 33.8211 26.3633Z" fill="white"/>
<path d="M30.2434 26.4437C30.8668 25.2362 31.932 24.8058 32.9015 25.3067C33.3337 25.5295 33.393 25.7447 32.9493 26.0056C32.1328 26.4856 31.2684 26.7027 30.2453 26.4437H30.2434Z" fill="white"/>
<path d="M55.0404 49.6268C54.0268 49.6268 53.0133 49.602 52.0017 49.6363C51.4586 49.6554 51.3477 49.4516 51.4586 48.9679C51.7971 47.4862 53.3422 46.2673 54.9371 46.2483C56.4995 46.2292 58.0408 47.3662 58.4385 48.8117C58.5992 49.3945 58.515 49.6877 57.796 49.642C56.8819 49.583 55.9602 49.6268 55.0423 49.6268H55.0404Z" fill="#DCDEE0"/>
<path d="M56.2889 41.3378C56.4285 41.8559 56.4189 42.3244 56.3252 42.7776C56.1703 43.5242 55.4934 44.0022 54.8011 43.8993C54.0802 43.7927 53.5122 43.0747 53.5428 42.3453C53.5543 42.0692 53.6423 41.9301 53.9291 41.9606C54.782 42.0539 55.5278 41.7092 56.2889 41.3359V41.3378Z" fill="#DCDEE0"/>
<path d="M55.8205 40.6327C55.4897 41.0174 55.0977 41.1431 54.6999 41.2269C54.3767 41.2955 53.8948 41.4288 53.8011 41.0384C53.7265 40.7279 54.1511 40.4708 54.4876 40.3661C54.9466 40.2233 55.4113 40.1928 55.8205 40.6327Z" fill="#DCDEE0"/>
<path d="M12.0457 49.6278C11.0972 49.6278 10.1468 49.5973 9.20018 49.6392C8.58824 49.6659 8.53661 49.443 8.66282 48.9212C9.04911 47.3253 10.5656 46.1921 12.323 46.2397C13.9083 46.2816 15.4133 47.5538 15.704 49.0507C15.7996 49.5421 15.6237 49.643 15.1762 49.6335C14.134 49.6106 13.0898 49.6259 12.0457 49.6259V49.6278Z" fill="#DCDEE0"/>
<path d="M13.4074 41.334C13.6846 41.871 13.5928 42.4005 13.4685 42.9147C13.3156 43.5413 12.8298 43.8574 12.2351 43.9069C11.6212 43.9583 11.1393 43.6384 10.8831 43.0709C10.5618 42.3605 10.7875 41.9986 11.5658 41.9663C12.2408 41.9377 12.826 41.6673 13.4074 41.334Z" fill="#DCDEE0"/>
<path d="M12.9904 40.6136C12.7456 40.9926 12.3631 41.1088 11.9711 41.1983C11.6173 41.2802 11.1106 41.4668 11.0073 41.0212C10.927 40.6765 11.3879 40.4251 11.7761 40.3318C12.2178 40.2251 12.6423 40.227 12.9904 40.6136Z" fill="#DCDEE0"/>
</g>
<defs>
<clipPath id="clip0_3725_34182">
<rect width="67" height="56.3987" fill="white" transform="translate(0 0.800781)"/>
</clipPath>
</defs>
</svg>
